<svg xmlns="http://www.w3.org/2000/svg" width="108.395" height="115.621" viewBox="0 0 108.395 115.621">
  <g id="guitar" transform="translate(-0.001 -0.001)">
    <path id="Path_222" data-name="Path 222" d="M379.7,69.73a1.758,1.758,0,0,1-1.759-1.758V50.133a3.285,3.285,0,0,1,2.821-3.14l16.312-3.4a2.791,2.791,0,0,1,2.33.589,3.317,3.317,0,0,1,1.206,2.55V60.544a1.759,1.759,0,1,1-3.517,0V47.179l-15.616,3.257-.019,0V67.972A1.757,1.757,0,0,1,379.7,69.73Zm0,0" transform="translate(-292.59 -33.702)" fill="#666"/>
    <path id="Path_223" data-name="Path 223" d="M420.708,288.01a1.758,1.758,0,0,1-1.571-.968l-1.689-3.35a1.758,1.758,0,0,1,3.14-1.583l1.688,3.35a1.759,1.759,0,0,1-1.568,2.551Zm0,0" transform="translate(-323.032 -217.653)" fill="#733e08"/>
    <path id="Path_224" data-name="Path 224" d="M448.782,273.643a1.76,1.76,0,0,1-1.571-.968l-1.689-3.35a1.758,1.758,0,0,1,3.14-1.583l1.689,3.35a1.76,1.76,0,0,1-1.569,2.551Zm0,0" transform="translate(-344.766 -206.531)" fill="#733e08"/>
    <path id="Path_225" data-name="Path 225" d="M385.644,223.151a1.758,1.758,0,0,1-1.573-.969l-1.682-3.35a1.758,1.758,0,1,1,3.142-1.578l1.683,3.35a1.759,1.759,0,0,1-1.57,2.548Zm0,0" transform="translate(-295.891 -167.441)" fill="#733e08"/>
    <path id="Path_226" data-name="Path 226" d="M413.7,208.757a1.756,1.756,0,0,1-1.571-.968l-1.689-3.349a1.758,1.758,0,1,1,3.139-1.583l1.689,3.349a1.759,1.759,0,0,1-1.568,2.551Zm0,0" transform="translate(-317.604 -156.297)" fill="#733e08"/>
    <g id="Group_58" data-name="Group 58" transform="translate(0.001 0.001)">
      <path id="Path_227" data-name="Path 227" d="M391.26,217.829l-6.341,3.251-2.9,1.484a1.38,1.38,0,0,0-.6,1.846l.6,1.174,3.437,6.7.6,1.168a1.375,1.375,0,0,0,1.847.593l3.252-1.668,6.34-3.244,3.167-1.622a1.379,1.379,0,0,0,.594-1.846l-4.638-9.041a1.381,1.381,0,0,0-1.847-.594Zm0,0" transform="translate(-295.169 -167.129)" fill="#f78411" fill-rule="evenodd"/>
      <path id="Path_228" data-name="Path 228" d="M140.406,184.68l-11.5,7.228c-.251.29-2.045,2.1-2.361,2.4a12.91,12.91,0,0,1-2.725,2c2.936,15.26,29.965,13.235,31.389.449a12.338,12.338,0,0,1-2.507-2.269l-1.616-1.972Zm0,0" transform="translate(-95.859 -142.975)" fill="#fcc368" fill-rule="evenodd"/>
      <path id="Path_229" data-name="Path 229" d="M24.354,281.582v13.452a3.4,3.4,0,0,0,3.325,3.442H77.9a3.391,3.391,0,0,0,3.319-3.442V277.52c4.519-5.21,11.842-15.233,6.61-31.818-2.394-4.933-6.063-6.812-12.224-7.142-.145-.013-1.062-.04-1.214-.046a10.4,10.4,0,0,1-5.482-1.873c-5.64,9.462-25.412,9.542-31.389-.449a9.9,9.9,0,0,1-4.413,1.246c-.146.013-1.069.04-1.214.046-7.587.4-11.75,4.056-14.111,11.494L12.34,266.124l12.014,6.291Zm0,0" transform="translate(-9.554 -182.855)" fill="#64b0d9" fill-rule="evenodd"/>
      <path id="Path_230" data-name="Path 230" d="M75.706,298.736c-11.433-3.937-19.317,1.5-20.762,11.955a39.77,39.77,0,0,0,1.128,13.262c3.562,12.965,22.272,18.055,32.227,5.354,3.358-4.286,6.643-7.445,11.862-7.089,5.5.369,9.031-2.724,8.847-6.674-.026-.613-.158-1.114-1.082-.956a3.877,3.877,0,0,1-2.909-6.99l-5.257,2.69a1.649,1.649,0,0,1-2.184-.765l-1.9-3.713a1.64,1.64,0,0,1,.654-2.222l5.317-2.723c-1.32-6.047-8.5-8.032-13.557-3.753-4.084,3.449-8.01,2.967-12.383,1.622Zm0,0" transform="translate(-42.44 -228.247)" fill="#f78411" fill-rule="evenodd"/>
      <path id="Path_231" data-name="Path 231" d="M268.688,258.852l-8.577,4.392-19.065,9.773-5.317,2.723a1.64,1.64,0,0,0-.654,2.223l1.9,3.712a1.649,1.649,0,0,0,2.184.765l5.257-2.69c9.448-4.846,18.209-9.331,27.709-14.2Zm0,0" transform="translate(-181.84 -200.398)" fill="#b5722f" fill-rule="evenodd"/>
      <path id="Path_232" data-name="Path 232" d="M157.816,354.156c-2-3.02-6.789-3.383-9.091-1.86a5.337,5.337,0,0,0-2.857,4.385,3.447,3.447,0,0,0-.376-.013h-.785a4.259,4.259,0,0,1,3.424,6.911,5.423,5.423,0,0,0,.343-.514,6.558,6.558,0,0,0,9.342-8.909Zm0,0" transform="translate(-112.029 -272.061)" fill="#b5722f" fill-rule="evenodd"/>
      <path id="Path_233" data-name="Path 233" d="M12.51,354.041c-3.305-.962-4.809-1.319-7.831-.2a7.633,7.633,0,0,0-1.886,1.029c-3.84,2.894-4.084,9.087,1.649,11.658,1.65.739,5.107.891,9.2.779,3.543-.093,7.561-.376,11.308-.64,3.015-.2,9.1-.818,11.162-3.547a4.259,4.259,0,0,0-3.424-6.911H30.2c-1.61,0-2.791-.554-1.874-2.532,1.313-2.829-2.765-4.022-5.139-1.385-1.874,2.077-1.352,4.161-4.157,3.508-2.862-.66-4.908-1.279-6.524-1.755Zm0,0" transform="translate(-0.006 -271.597)" fill="#ffdda6" fill-rule="evenodd"/>
      <path id="Path_234" data-name="Path 234" d="M86.421,113.488H83.255a2.124,2.124,0,0,0-2.118,2.117v2.1c0,2.671,2.962,5.4,5.608,5.368l4.031-5.836Zm0,0" transform="translate(-62.815 -87.86)" fill="#eda93b" fill-rule="evenodd"/>
      <path id="Path_235" data-name="Path 235" d="M278.845,115.6a2.123,2.123,0,0,0-2.117-2.116h-3.161l-4.79,4.787,4.46,4.793c2.645.034,5.608-2.7,5.608-5.368Zm0,0" transform="translate(-208.081 -87.86)" fill="#eda93b" fill-rule="evenodd"/>
      <path id="Path_236" data-name="Path 236" d="M146.417,60.668,126.5,51.316,104.539,60.47V71.99a14.364,14.364,0,0,0,.323,2.948c1.049,4.873,4.519,10.09,9.118,13.723a23.334,23.334,0,0,0,6.281,3.587,13.429,13.429,0,0,0,10.463-.012,22.733,22.733,0,0,0,5.437-2.961c5-3.647,8.82-9.179,9.928-14.336a13.9,13.9,0,0,0,.33-2.947Zm0,0" transform="translate(-80.932 -39.728)" fill="#ffdda6" fill-rule="evenodd"/>
      <path id="Path_237" data-name="Path 237" d="M135.724,1.7c-6.432,3.423-14.461-1.562-21.2,1.4-6.6,2.9-9.988,9.1-9.988,17.653,19.31-7.155,25.749,9.094,41.879.2.68-.376,1.38-.8,2.092-1.267,12.179-8.842.244-24.913-12.785-17.983Zm0,0" transform="translate(-80.932 -0.005)" fill="gray" fill-rule="evenodd"/>
      <path id="Path_238" data-name="Path 238" d="M319.145,334.34l-4.658,4.688c-1.682,3.258-3.127,15.714,2.1,16.894,7.383,1.668,12.568-3.647,10.53-11.745l-2.046-8.117Zm0,0" transform="translate(-242.272 -258.839)" fill="#ffdda6" fill-rule="evenodd"/>
      <path id="Path_239" data-name="Path 239" d="M320.142,304.613a2.732,2.732,0,0,0-3.252-.535l-7.726,4.1a2.73,2.73,0,0,0-1.411,2.776,2.458,2.458,0,0,0,.29.9l.99,1.867a4.84,4.84,0,0,0,6.537,2l3.985-2.117a4.833,4.833,0,0,0,2.006-6.535l-1-1.866a2.387,2.387,0,0,0-.422-.594Zm0,0" transform="translate(-238.236 -235.166)" fill="#fcc368" fill-rule="evenodd"/>
      <path id="Path_240" data-name="Path 240" d="M329.5,350.078l-2.046-8.117a4.894,4.894,0,0,1-1.484,1.22l-.317.165.9,3.573c2.012,7.98-3,13.262-10.212,11.811-.106-.019-.212-.04-.317-.066h-.007c.093.258.191.508.3.739a3.936,3.936,0,0,0,2.659,2.42c7.382,1.669,12.568-3.647,10.529-11.745Zm0,0" transform="translate(-244.655 -264.738)" fill="#fcc368" fill-rule="evenodd"/>
      <path id="Path_241" data-name="Path 241" d="M91.239,392.659a18.624,18.624,0,0,1-29.411.27c-.211-.27-.415-.554-.613-.844a16.387,16.387,0,0,0,.977,2.375c5.4,10.663,21.922,13.993,31.059,2.334,3.358-4.286,6.643-7.445,11.862-7.089,5.5.369,9.031-2.724,8.847-6.674-.026-.613-.158-1.114-1.082-.956a3.843,3.843,0,0,1-1.629-.079c-1.28,2.328-4.209,3.837-8.147,3.573-5.219-.355-8.5,2.8-11.862,7.09Zm0,0" transform="translate(-47.392 -295.733)" fill="#f74311" fill-rule="evenodd"/>
      <path id="Path_242" data-name="Path 242" d="M165.828,365.71a6.519,6.519,0,0,1-4.941.949c-.047-.006-.093-.019-.132-.026a4.486,4.486,0,0,1-.884,2.374,5.427,5.427,0,0,0,.343-.514,6.558,6.558,0,0,0,9.342-8.909,5.248,5.248,0,0,0-1.036-1.154A6.549,6.549,0,0,1,165.828,365.71Zm0,0" transform="translate(-123.769 -277.488)" fill="#733e08" fill-rule="evenodd"/>
      <path id="Path_243" data-name="Path 243" d="M35.153,383.029c-2.065,2.737-8.141,3.343-11.162,3.555-3.55.243-7.343.507-10.741.619-.125,0-.244.007-.363.007-.066.006-.132.006-.2.006-4.1.112-7.547-.033-9.2-.778A7.666,7.666,0,0,1,0,383.544c-.066,2.453,1.28,4.959,4.433,6.371,1.65.738,5.107.89,9.2.778.152,0,.3-.006.442-.013,3.431-.1,7.277-.376,10.866-.626,3.015-.2,9.1-.818,11.162-3.548a4.488,4.488,0,0,0,.884-2.374,4.379,4.379,0,0,0-.99-3.1,4.489,4.489,0,0,1-.844,2Zm0,0" transform="translate(-0.001 -294.986)" fill="#fcc368" fill-rule="evenodd"/>
      <path id="Path_244" data-name="Path 244" d="M406.417,248.115l-6.334,3.244-3.258,1.669a1.371,1.371,0,0,1-1.841-.594l1.089,2.129.6,1.168a1.375,1.375,0,0,0,1.847.593l3.252-1.668,6.34-3.244,3.167-1.622a1.38,1.38,0,0,0,.594-1.846l-1.689-3.284a1.374,1.374,0,0,1-.6,1.833Zm0,0" transform="translate(-305.788 -189.411)" fill="#f74311" fill-rule="evenodd"/>
      <path id="Path_245" data-name="Path 245" d="M267.99,247.24c-2.394-4.933-6.063-6.812-12.224-7.142-.145-.013-1.062-.04-1.214-.046a10.4,10.4,0,0,1-5.482-1.873,12.464,12.464,0,0,1-4.011,4.036c.053.04.106.072.159.1a10.291,10.291,0,0,0,5.2,1.7c.152.006,1.069.033,1.214.039,5.522.3,9.038,1.84,11.433,5.7Zm0,0" transform="translate(-189.719 -184.394)" fill="#4a83c9" fill-rule="evenodd"/>
      <path id="Path_246" data-name="Path 246" d="M143.3,220.271a23.313,23.313,0,0,1-6.281-3.588c-.251.29-2.045,2.11-2.362,2.4l-.356.33c1.874,2.051,5.5,3.555,8.115,4.379a18.47,18.47,0,0,0,12.324-.006c1.155-.37,1.728.224,2.777.864a19.114,19.114,0,0,0,1.762.943l.033-.02a12.473,12.473,0,0,0,4.011-4.036,12.682,12.682,0,0,1-1.471-1.173,12.3,12.3,0,0,1-1.036-1.095L159.2,217.3a22.732,22.732,0,0,1-5.437,2.96,13.427,13.427,0,0,1-10.462.013Zm0,0" transform="translate(-103.976 -167.752)" fill="#eda93b" fill-rule="evenodd"/>
      <path id="Path_247" data-name="Path 247" d="M191.108,92.726a23.81,23.81,0,0,1-4.347,1.892v7.669c0,.132,0,.258-.006.389a13.926,13.926,0,0,1-.324,2.559c-1.036,4.827-4.44,9.978-8.972,13.611-.31.251-.633.488-.956.725a22.858,22.858,0,0,1-5.437,2.967,13.192,13.192,0,0,1-8.8.548,20.881,20.881,0,0,0,2.685,1.219,13.429,13.429,0,0,0,10.463-.012,22.735,22.735,0,0,0,5.436-2.961c5-3.647,8.82-9.179,9.929-14.336a13.9,13.9,0,0,0,.33-2.947V92.726Zm0,0" transform="translate(-125.622 -71.787)" fill="#fcc368" fill-rule="evenodd"/>
      <path id="Path_248" data-name="Path 248" d="M257.115,19.674c11.46-8.322,1.57-23.04-10.5-18.978,9.118.824,14.765,11.988,5.977,19.1-.218.177-.442.349-.679.52q-1.078.7-2.1,1.267a23.155,23.155,0,0,1-4.995,2.084,17.635,17.635,0,0,0,5.852-.838,23.809,23.809,0,0,0,4.347-1.892q1.02-.564,2.092-1.267Zm0,0" transform="translate(-189.538 -0.001)" fill="#666" fill-rule="evenodd"/>
      <path id="Path_249" data-name="Path 249" d="M308.309,316.847a2.07,2.07,0,0,0,.184.435l.99,1.867a4.84,4.84,0,0,0,6.537,2l3.985-2.117a4.833,4.833,0,0,0,2.006-6.535l-.917-1.727C322.915,315.653,310.538,321.054,308.309,316.847Zm0,0" transform="translate(-238.686 -240.594)" fill="#eda93b" fill-rule="evenodd"/>
      <path id="Path_250" data-name="Path 250" d="M265.034,278.653l-25.089,12.806.02.04.93,1.82a1.649,1.649,0,0,0,2.183.765l5.258-2.69,6.941-3.561a2.731,2.731,0,0,1,1.411-2.776l7.726-4.1.079-.039a2.727,2.727,0,0,1,.917-.264,2.766,2.766,0,0,1,2.256.837l8.378-4.292-1.089-2.13-.6-1.174Zm0,0" transform="translate(-185.76 -212.04)" fill="#733e08" fill-rule="evenodd"/>
      <path id="Path_251" data-name="Path 251" d="M347.708,141.641a7.117,7.117,0,0,0-4.678-.3c-3.543.825-6.412,3.436-6.412,5.843s2.869,3.693,6.412,2.875,6.413-3.436,6.413-5.842A2.824,2.824,0,0,0,347.708,141.641Zm0,0" transform="translate(-260.602 -109.233)" fill="#a2d6f2" fill-rule="evenodd"/>
      <path id="Path_252" data-name="Path 252" d="M433.895,110.387a7.5,7.5,0,0,0-4.276-.119c-3.543.818-6.412,3.436-6.412,5.842s2.87,3.693,6.412,2.869,6.413-3.435,6.413-5.842a2.939,2.939,0,0,0-2.137-2.75Zm0,0" transform="translate(-327.638 -85.175)" fill="#a2d6f2" fill-rule="evenodd"/>
      <path id="Path_253" data-name="Path 253" d="M355.486,141.641a7.117,7.117,0,0,0-4.678-.3c-.1.026-.2.047-.29.073a4.066,4.066,0,0,1,.528.224,2.823,2.823,0,0,1,1.735,2.578c0,2.334-2.712,4.873-6.116,5.77a7.691,7.691,0,0,0,4.143.072c3.543-.824,6.413-3.436,6.413-5.842a2.824,2.824,0,0,0-1.735-2.578Zm0,0" transform="translate(-268.38 -109.233)" fill="#64b0d9" fill-rule="evenodd"/>
      <path id="Path_254" data-name="Path 254" d="M443.81,113.137a2.939,2.939,0,0,0-2.137-2.75,7.5,7.5,0,0,0-4.276-.119c-.1.02-.2.046-.3.072.046.013.092.034.138.047a2.94,2.94,0,0,1,2.13,2.75c0,2.341-2.711,4.88-6.116,5.77a7.561,7.561,0,0,0,4.143.072C440.941,118.162,443.81,115.544,443.81,113.137Zm0,0" transform="translate(-335.416 -85.175)" fill="#64b0d9" fill-rule="evenodd"/>
    </g>
    <path id="Path_255" data-name="Path 255" d="M143.322,127.054a1.758,1.758,0,0,1-1.313-2.929,6.024,6.024,0,0,1,4.343-1.571h0a6.016,6.016,0,0,1,4.34,1.571,1.758,1.758,0,1,1-2.627,2.338,3.015,3.015,0,0,0-1.7-.392h-.012a3.033,3.033,0,0,0-1.717.393,1.751,1.751,0,0,1-1.313.589Zm0,0" transform="translate(-109.595 -94.878)" fill="#666"/>
    <path id="Path_256" data-name="Path 256" d="M211.3,127.055a1.759,1.759,0,0,1-1.316-2.925,6,6,0,0,1,4.329-1.575h.011a6.014,6.014,0,0,1,4.341,1.571,1.759,1.759,0,1,1-2.628,2.338,3.009,3.009,0,0,0-1.692-.392h-.019a3.021,3.021,0,0,0-1.71.391,1.75,1.75,0,0,1-1.316.593Zm0,0" transform="translate(-162.224 -94.878)" fill="#666"/>
  </g>
</svg>
