<svg xmlns="http://www.w3.org/2000/svg" width="86.907" height="107.765" viewBox="0 0 86.907 107.765">
  <g id="_2019-ncov" data-name="2019-ncov" transform="translate(-49.549)">
    <path id="Path_257" data-name="Path 257" d="M198.954,381.155a6.953,6.953,0,0,1-4.18-6.376v-8.092H163.487v8.092a6.953,6.953,0,0,1-4.182,6.377l-.667,9.17h40.985Z" transform="translate(-86.128 -289.507)" fill="#f6d190"/>
    <path id="Path_258" data-name="Path 258" d="M181.677,344.5a29.367,29.367,0,0,0,31.287,0v-5.916H181.677Z" transform="translate(-104.318 -267.317)" fill="#ecbd83"/>
    <path id="Path_259" data-name="Path 259" d="M152.547,0h-22.6a6.937,6.937,0,0,0-6.707,5.214L107.355,46.93h62.573V17.382A17.381,17.381,0,0,0,152.547,0Z" transform="translate(-45.639)" fill="#966a5b"/>
    <path id="Path_260" data-name="Path 260" d="M123,24.774h-3.476a12.167,12.167,0,0,0-12.167,12.167V66.489H123V24.774Z" transform="translate(-45.639 -19.56)" fill="#785353"/>
    <path id="Path_261" data-name="Path 261" d="M209.04,133.148a5.413,5.413,0,0,0-5.5-4.934h-1.443A5.214,5.214,0,0,1,196.88,123v-8.691a6.952,6.952,0,0,0-6.953-6.953H158.641L152.5,145.272l47.769-6.63h3.564a5.215,5.215,0,0,0,5.207-5.495Z" transform="translate(-81.282 -84.76)" fill="#ffe09f"/>
    <path id="Path_262" data-name="Path 262" d="M109.958,136.9V107.355a6.952,6.952,0,0,0-6.953,6.953V123a5.214,5.214,0,0,1-5.214,5.214H96.348a5.413,5.413,0,0,0-5.5,4.934,5.215,5.215,0,0,0,5.207,5.495h3.564l8.088,2.7c.878.045,1.761.07,2.646.085A26.236,26.236,0,0,1,109.958,136.9Z" transform="translate(-32.599 -84.759)" fill="#f6d190"/>
    <g id="Group_59" data-name="Group 59" transform="translate(80.836 43.454)">
      <path id="Path_263" data-name="Path 263" d="M199.932,211.666a1.737,1.737,0,0,1-1.738-1.738V208.19a1.738,1.738,0,0,1,3.476,0v1.738A1.737,1.737,0,0,1,199.932,211.666Z" transform="translate(-198.194 -206.452)" fill="#6e4848"/>
    </g>
    <g id="Group_60" data-name="Group 60" transform="translate(101.693 43.454)">
      <path id="Path_264" data-name="Path 264" d="M299.028,211.666a1.737,1.737,0,0,1-1.738-1.738V208.19a1.738,1.738,0,0,1,3.476,0v1.738A1.737,1.737,0,0,1,299.028,211.666Z" transform="translate(-297.29 -206.452)" fill="#6e4848"/>
    </g>
    <g id="Group_61" data-name="Group 61" transform="translate(75.621 36.5)">
      <path id="Path_265" data-name="Path 265" d="M175.155,178.632a1.738,1.738,0,0,1-.419-3.424l6.953-1.738a1.737,1.737,0,1,1,.842,3.371l-6.953,1.738A1.728,1.728,0,0,1,175.155,178.632Z" transform="translate(-173.418 -173.416)" fill="#785353"/>
    </g>
    <g id="Group_62" data-name="Group 62" transform="translate(99.955 36.5)">
      <path id="Path_266" data-name="Path 266" d="M297.725,178.63a1.73,1.73,0,0,1-.423-.053l-6.953-1.738a1.737,1.737,0,1,1,.842-3.371l6.953,1.738a1.738,1.738,0,0,1-.419,3.424Z" transform="translate(-289.032 -173.414)" fill="#785353"/>
    </g>
    <path id="Path_267" data-name="Path 267" d="M216.3,189.939a1.778,1.778,0,0,0-1.623,1.794v10.424a1.684,1.684,0,0,1-1.684,1.684h-36.5c-4.517,11.576,1.692,23.837,15.505,23.837a27.226,27.226,0,0,0,5.278-.023,26.249,26.249,0,0,0,17.912-13.424l2.066-5.175a25.906,25.906,0,0,0,.894-5.214V191.673a1.738,1.738,0,0,0-1.854-1.734Z" transform="translate(-99.075 -149.958)" fill="#faf5dc"/>
    <path id="Path_268" data-name="Path 268" d="M181.312,214.23a25.413,25.413,0,0,0,2.066-5.175H143.5a26,26,0,0,1-.884-5.214h-5.328a1.684,1.684,0,0,1-1.684-1.684V191.733a1.778,1.778,0,0,0-1.623-1.794,1.738,1.738,0,0,0-1.854,1.734V203.84a25.931,25.931,0,0,0,.894,5.214l2.069,5.181A26.139,26.139,0,0,0,163.4,227.654a26,26,0,0,1-13.2-7.119,46.245,46.245,0,0,0,8,.687c9.113,0,17.52-2.615,23.112-6.992Zm-34.663,1.891a26.044,26.044,0,0,1-1.914-3.589h32.958c-4.957,3.265-11.992,5.214-19.492,5.214a40.93,40.93,0,0,1-11.551-1.625Z" transform="translate(-65.198 -149.958)" fill="#f5ebcd"/>
    <path id="Path_269" data-name="Path 269" d="M136.378,280.8a27.469,27.469,0,0,0,2.068,5.149,34.478,34.478,0,0,0,15.1,6.3A26.3,26.3,0,0,1,150,287.84a30,30,0,0,1-7.94-3.589h6.026a25.971,25.971,0,0,1-1.235-3.476H136.371C136.374,280.784,136.375,280.793,136.378,280.8Z" transform="translate(-68.548 -221.677)" fill="#f4dbb3"/>
    <path id="Path_270" data-name="Path 270" d="M131.577,449.746l-11.7-3.657L93,456.91,66.132,446.089l-11.7,3.657a6.952,6.952,0,0,0-4.879,6.636,3.579,3.579,0,0,0,3.579,3.579h79.748a3.579,3.579,0,0,0,3.579-3.579A6.952,6.952,0,0,0,131.577,449.746Z" transform="translate(0 -352.197)" fill="#dad8db"/>
    <path id="Path_271" data-name="Path 271" d="M182.076,437.672l-6.349-1.984a7.078,7.078,0,0,1-.7-.26,26.025,26.025,0,0,1-39.649,0,7.038,7.038,0,0,1-.7.259l-6.349,1.984a32.96,32.96,0,0,0,53.741,0Z" transform="translate(-62.203 -343.78)" fill="#eceaec"/>
  </g>
</svg>
