<svg xmlns="http://www.w3.org/2000/svg" width="97" height="97" viewBox="0 0 97 97">
  <g id="no_handshake" data-name="no handshake" transform="translate(-297 -388.696)">
    <g id="Ellipse_9" data-name="Ellipse 9" transform="translate(297 388.696)" fill="none" stroke="red" stroke-width="4">
      <circle cx="48.5" cy="48.5" r="48.5" stroke="none"/>
      <circle cx="48.5" cy="48.5" r="46.5" fill="none"/>
    </g>
    <g id="business" transform="translate(307.306 413.898)">
      <path id="Path_132" data-name="Path 132" d="M169.471,136.109l-1.95-15.839-3.654.45v0l-7.083-3.986a4.268,4.268,0,0,0-2.486-.53l-11.184,1.034a4.267,4.267,0,0,0-3.3,2.105l-7.883,13.568a1.875,1.875,0,0,0,.959,2.7l.322.122a6.992,6.992,0,0,0,1.9.423l-1,.87-2,1.741-5.684,4.848a2.428,2.428,0,0,0-.236,3.427l.577.66a3.121,3.121,0,0,0,4.4.3l2.172,2.492a3.115,3.115,0,0,0,4.4.3l2.17,2.492a3.122,3.122,0,0,0,4.4.3L145.5,154.6a3.122,3.122,0,0,0,4.4.3l1.6-1.4,13.476-10.5L165,143l5.317-.005Z" transform="translate(-106.769 -114.028)" fill="#f29f5c"/>
      <path id="Path_133" data-name="Path 133" d="M163.705,263.845l-.015.013-13.476,10.5-1.6,1.4a3.122,3.122,0,0,1-4.4-.3l-1.179-1.019a3.122,3.122,0,0,1-4.4-.3l-2.17-2.492a3.115,3.115,0,0,1-4.4-.3l-2.172-2.492a3.12,3.12,0,0,1-3.865.184,2.427,2.427,0,0,0,.192,2.936l.577.66a3.121,3.121,0,0,0,4.4.3l2.172,2.492a3.115,3.115,0,0,0,4.4.3l2.17,2.492a3.122,3.122,0,0,0,4.4.3l1.179,1.019a3.122,3.122,0,0,0,4.4.3l1.6-1.4L165,267.939l.015-.013,5.317-.005-.588-4.779Z" transform="translate(-106.779 -238.957)" fill="#d37d42"/>
      <path id="Path_134" data-name="Path 134" d="M124.6,149.32l-7.22-6.226-2.008-1.73-1.437-1.237-6.177-5.325.713-6.073a4.191,4.191,0,0,0-3.045-4.528l-13.466-3.726a3.116,3.116,0,0,0-3.6,1.583l-1.693,3.306L79.4,124.87l-1.862,15.849-.809,6.888,7.075.471.015.013L98.6,160.832l1.611,1.39a3.122,3.122,0,0,0,4.4-.327l2.156-2.5a3.122,3.122,0,0,0,4.4-.327l2.156-2.5a3.115,3.115,0,0,0,4.4-.325l2.158-2.5a3.121,3.121,0,0,0,4.4-.325l.573-.664A2.428,2.428,0,0,0,124.6,149.32Z" transform="translate(-65.225 -117.581)" fill="#f9c295"/>
      <g id="Group_38" data-name="Group 38" transform="translate(34.011 29.843)">
        <path id="Path_135" data-name="Path 135" d="M252.241,302.779l-2.2-1.9a2.578,2.578,0,0,1-.107,3.233l-.608.7a3.313,3.313,0,0,1-4.671.345l-2.291,2.658a3.307,3.307,0,0,1-4.671.345l-2.289,2.658a3.314,3.314,0,0,1-4.674.347l-2.289,2.656a3.291,3.291,0,0,1-1.57,1.012l.974.841a3.122,3.122,0,0,0,4.4-.327l2.156-2.5a3.122,3.122,0,0,0,4.4-.327l2.156-2.5a3.115,3.115,0,0,0,4.4-.325l2.158-2.5a3.121,3.121,0,0,0,4.4-.325l.573-.664A2.428,2.428,0,0,0,252.241,302.779Z" transform="translate(-226.872 -300.883)" fill="#e59f6a"/>
        <path id="Path_136" data-name="Path 136" d="M336.525,316.525l-3.956-3.411a1.124,1.124,0,1,0-1.468,1.7l3.949,3.405.744-.863a3.112,3.112,0,0,0,.977.568A1.125,1.125,0,0,0,336.525,316.525Z" transform="translate(-315.144 -311.048)" fill="#e59f6a"/>
        <path id="Path_137" data-name="Path 137" d="M295.282,338.645a1.124,1.124,0,0,0-.234-1.421l-3.554-3.064a1.124,1.124,0,0,0-1.468,1.7l3.554,3.064,0,0,.734-.853A3.108,3.108,0,0,0,295.282,338.645Z" transform="translate(-280.226 -328.939)" fill="#e59f6a"/>
      </g>
      <g id="Group_39" data-name="Group 39" transform="translate(17.523 2.155)">
        <path id="Path_138" data-name="Path 138" d="M118.311,298.849l-.856,1.131A2.8,2.8,0,0,0,118,303.9h0a2.8,2.8,0,0,0,3.919-.541l.856-1.131a2.8,2.8,0,0,0-.541-3.919h0A2.8,2.8,0,0,0,118.311,298.849Z" transform="translate(-116.887 -270.523)" fill="#f29f5c"/>
        <path id="Path_139" data-name="Path 139" d="M148.817,314.716l-1.613,2.13a2.8,2.8,0,0,0,.541,3.919h0a2.8,2.8,0,0,0,3.919-.541l1.613-2.13a2.8,2.8,0,0,0-.541-3.919h0A2.8,2.8,0,0,0,148.817,314.716Z" transform="translate(-142.177 -284.011)" fill="#f29f5c"/>
        <path id="Path_140" data-name="Path 140" d="M179.152,332.09l-2.2,2.9a2.8,2.8,0,0,0,.541,3.919h0a2.8,2.8,0,0,0,3.919-.541l2.2-2.9a2.8,2.8,0,0,0-.541-3.919h0A2.8,2.8,0,0,0,179.152,332.09Z" transform="translate(-167.467 -298.781)" fill="#f29f5c"/>
        <path id="Path_141" data-name="Path 141" d="M209.029,353.5l-2.326,3.071a2.8,2.8,0,0,0,.541,3.919h0a2.8,2.8,0,0,0,3.919-.541l2.326-3.071a2.8,2.8,0,0,0-.541-3.919h0A2.8,2.8,0,0,0,209.029,353.5Z" transform="translate(-192.757 -316.978)" fill="#f29f5c"/>
        <path id="Path_142" data-name="Path 142" d="M198.364,120.718l-7.083-3.986a4.268,4.268,0,0,0-2.486-.53l-11.184,1.034a4.267,4.267,0,0,0-3.3,2.105l-7.883,13.568a1.875,1.875,0,0,0,.959,2.7l.322.122a7.009,7.009,0,0,0,8.035-2.286l3.02-3.931s7.26,8.406,15.253-1.411" transform="translate(-158.787 -116.183)" fill="#f29f5c"/>
      </g>
      <path id="Path_143" data-name="Path 143" d="M414.239,132.893l-3.7-30.095a1.124,1.124,0,0,0-1.253-.978l-8.663,1.066a4.116,4.116,0,0,0-3.578,4.583l2.975,24.166a4.109,4.109,0,0,0,4.583,3.578l8.663-1.066A1.125,1.125,0,0,0,414.239,132.893Z" transform="translate(-337.493 -101.811)" fill="#5c9cee"/>
      <path id="Path_144" data-name="Path 144" d="M429.565,288.047l-.407-3.3a1.175,1.175,0,0,1-.829.507l-9.081,1.118a4.3,4.3,0,0,1-4.21-2.042l.3,2.462a4.109,4.109,0,0,0,4.583,3.578l8.663-1.066A1.124,1.124,0,0,0,429.565,288.047Z" transform="translate(-352.819 -256.965)" fill="#3580d3"/>
      <path id="Path_145" data-name="Path 145" d="M13.63,102.885l-8.663-1.066a1.124,1.124,0,0,0-1.253.978l-3.7,30.095a1.124,1.124,0,0,0,.978,1.253l8.663,1.066a4.109,4.109,0,0,0,4.583-3.578l2.975-24.166A4.116,4.116,0,0,0,13.63,102.885Z" transform="translate(0 -101.81)" fill="#ed5575"/>
      <path id="Path_146" data-name="Path 146" d="M.009,288.047l.407-3.3a1.175,1.175,0,0,0,.829.507l9.081,1.118a4.3,4.3,0,0,0,4.21-2.042l-.3,2.462a4.109,4.109,0,0,1-4.583,3.578L.987,289.3A1.124,1.124,0,0,1,.009,288.047Z" transform="translate(0 -256.965)" fill="#cc3a60"/>
      <g id="Group_40" data-name="Group 40" transform="translate(4.901 24.09)">
        <circle id="Ellipse_7" data-name="Ellipse 7" cx="2.173" cy="2.173" r="2.173" transform="translate(62.484 0)" fill="#ebeef2"/>
        <circle id="Ellipse_8" data-name="Ellipse 8" cx="2.173" cy="2.173" r="2.173" transform="translate(0 0)" fill="#ebeef2"/>
      </g>
    </g>
    <path id="Path_147" data-name="Path 147" d="M338.263,513.117l74.173-58.1" transform="translate(-27.088 -43.861)" fill="none" stroke="red" stroke-width="4"/>
  </g>
</svg>
