<svg xmlns="http://www.w3.org/2000/svg" width="162.529" height="181.782" viewBox="0 0 162.529 181.782">
  <g id="reading" transform="translate(-27.113)">
    <g id="Group_51" data-name="Group 51" transform="translate(29.776 2.662)">
      <g id="Group_47" data-name="Group 47" transform="translate(25.493)">
        <path id="Path_189" data-name="Path 189" d="M202.611,181.993h.059a9.239,9.239,0,0,0,0-18.479c-.066,0-.133,0-.2,0H117.883c-.066,0-.133,0-.2,0a9.239,9.239,0,0,0,0,18.479h.059" transform="translate(-107.725 -108.122)" fill="#f1b986"/>
        <path id="Path_190" data-name="Path 190" d="M217.207,92.022a416.75,416.75,0,0,0-80.618,0,285.813,285.813,0,0,0-1.843,50.125,23.647,23.647,0,0,0,22.522,22.418q19.63.927,39.26,0a23.647,23.647,0,0,0,22.522-22.418A285.714,285.714,0,0,0,217.207,92.022Z" transform="translate(-124.446 -60.753)" fill="#f1d0a5"/>
        <path id="Path_191" data-name="Path 191" d="M136.594,92.017q20.151-1.955,40.31-1.952a107.338,107.338,0,0,0-20.41,1.972q-1.588,25.3-.934,50.6c.285,11.1,4.342,20.153,9.666,22.217q-3.975-.108-7.954-.3a23.649,23.649,0,0,1-22.522-22.418,286.115,286.115,0,0,1,1.844-50.127Z" transform="translate(-124.45 -60.751)" fill="#f1b986"/>
        <path id="Path_192" data-name="Path 192" d="M181.251,52.664C165.806,58.63,143.865,56,132.808,44.942c0,0-2.626,17.953-16.23,17.953l-5.932,1.995C94.8,2.7,128.6,19.315,128.6,19.315c3.19-6.183,7.838-8.743,12.693-9.36.427-.053.855-.092,1.285-.119.034,0,.069,0,.1-.005a28.178,28.178,0,0,1,9.96,1.5c1.072.346,2.1.726,3.059,1.119a46.856,46.856,0,0,1,7.273,3.737l.116.079c3.478-4.6,6.795-8.767,10.442-8.767a3.8,3.8,0,0,1,3.225,1.488c2.631,3.449.47,11.743.3,12.4l-.008.029c0-.005.005-.016.011-.029l.018-.048c.467-1.177,5.692-13.836,15.063-13.836a7.323,7.323,0,0,1,1.594.161c6.985,1.544,1.517,13.762.916,15.055l-.016.037c-.016.032-.026.055-.032.066.3-.38,12-15.232,17.2-8.418,0,.005,0,.005.005.008,5.244,6.912-15.105,32.291-30.543,38.255Z" transform="translate(-106.417 -7.5)" fill="#f4dd45"/>
        <g id="Group_46" data-name="Group 46">
          <path id="Path_193" data-name="Path 193" d="M371.953,23.693h0c-2.628-2.626-11.733,9.769-17.2,8.426l.04-.074c-.016.032-.026.055-.032.066C355.056,31.731,366.754,16.879,371.953,23.693Z" transform="translate(-266.581 -16.791)" fill="#ecc32e"/>
          <path id="Path_194" data-name="Path 194" d="M322.005,7.66c-3.949-.9-7.609,6.619-9.677,11.955a4.419,4.419,0,0,1-6.45,2.158l-.565-.35.005-.011.008-.029h0l.018-.048C305.815,20.158,311.04,7.5,320.411,7.5A7.349,7.349,0,0,1,322.005,7.66Z" transform="translate(-234.697 -7.499)" fill="#ecc32e"/>
          <path id="Path_195" data-name="Path 195" d="M141.287,14.413c-11.3,1.992-15.57,27.9-8.482,34.987,0,0-2.626,17.953-16.23,17.953l-5.932,1.995C94.8,7.156,128.593,23.773,128.593,23.773c3.191-6.183,7.838-8.743,12.693-9.36Z" transform="translate(-106.415 -11.958)" fill="#ecc32e"/>
          <path id="Path_196" data-name="Path 196" d="M258.492,8.988c-3.972-3.972-6.619,16.4-15.559,19.658s-9.777-.908-9.777-.908v0c4.4-1.628,8.117-6.774,11.667-11.472l0,0c.108-.145.216-.288.325-.43.135-.182.274-.364.412-.544,3.214-4.2,6.318-7.792,9.706-7.792a3.8,3.8,0,0,1,3.225,1.488Z" transform="translate(-188.157 -7.5)" fill="#ecc32e"/>
          <path id="Path_197" data-name="Path 197" d="M208.364,14.066c-.037,0-.074,0-.111,0,.034,0,.069,0,.1-.005Z" transform="translate(-172.096 -11.733)" fill="#ecc32e"/>
        </g>
      </g>
      <path id="Path_198" data-name="Path 198" d="M323.344,265.621v60.016a8.164,8.164,0,0,1-6.433,7.978L263.6,345.168H256.72V268.451H263.6l49.852-10.8a8.162,8.162,0,0,1,9.891,7.974Z" transform="translate(-177.863 -168.712)" fill="#da4a54"/>
      <path id="Path_199" data-name="Path 199" d="M134.765,268.451v76.718h-7.392l-53.31-11.553a8.164,8.164,0,0,1-6.433-7.978V265.621a8.162,8.162,0,0,1,9.891-7.974l49.852,10.8Z" transform="translate(-55.908 -168.712)" fill="#c32430"/>
      <path id="Path_200" data-name="Path 200" d="M235.9,365.137V288.419h14.271v76.718" transform="translate(-164.436 -188.68)" fill="#dd636e"/>
      <g id="Group_50" data-name="Group 50" transform="translate(0 104.276)">
        <g id="Group_48" data-name="Group 48">
          <path id="Path_201" data-name="Path 201" d="M44.871,322.831H42.079a7.465,7.465,0,0,1-7.465-7.465v-6.7a7.465,7.465,0,0,1,7.465-7.465h2.792a7.465,7.465,0,0,1,7.465,7.465v6.7A7.465,7.465,0,0,1,44.871,322.831Z" transform="translate(-34.614 -301.2)" fill="#f1d0a5"/>
          <path id="Path_202" data-name="Path 202" d="M46.307,322.691a7.071,7.071,0,0,1-1.434.142H42.078a7.466,7.466,0,0,1-7.463-7.467v-6.7a7.463,7.463,0,0,1,7.463-7.467h2.794a7.071,7.071,0,0,1,1.434.142,7.462,7.462,0,0,0-6.025,7.325v6.7A7.462,7.462,0,0,0,46.307,322.691Z" transform="translate(-34.615 -301.2)" fill="#f1b986"/>
        </g>
        <g id="Group_49" data-name="Group 49" transform="translate(139.48)">
          <path id="Path_203" data-name="Path 203" d="M437.726,322.831h-2.792a7.465,7.465,0,0,1-7.465-7.465v-6.7a7.465,7.465,0,0,1,7.465-7.465h2.792a7.465,7.465,0,0,1,7.465,7.465v6.7A7.465,7.465,0,0,1,437.726,322.831Z" transform="translate(-427.469 -301.2)" fill="#f1d0a5"/>
          <path id="Path_204" data-name="Path 204" d="M439.162,322.691a7.071,7.071,0,0,1-1.434.142h-2.794a7.466,7.466,0,0,1-7.463-7.467v-6.7a7.463,7.463,0,0,1,7.463-7.467h2.794a7.071,7.071,0,0,1,1.434.142,7.462,7.462,0,0,0-6.025,7.325v6.7A7.462,7.462,0,0,0,439.162,322.691Z" transform="translate(-427.47 -301.2)" fill="#f1b986"/>
        </g>
      </g>
    </g>
    <g id="Group_52" data-name="Group 52" transform="translate(27.113 0)">
      <path id="Path_205" data-name="Path 205" d="M244.659,235.5a2.663,2.663,0,0,0-4.811-2.283,6.9,6.9,0,0,1-12.475,0,2.663,2.663,0,0,0-4.812,2.283,12.229,12.229,0,0,0,22.1,0Z" transform="translate(-153.003 -149.435)"/>
      <ellipse id="Ellipse_13" data-name="Ellipse 13" cx="3.846" cy="5.725" rx="3.846" ry="5.725" transform="translate(57.092 63.651)"/>
      <ellipse id="Ellipse_14" data-name="Ellipse 14" cx="3.846" cy="5.725" rx="3.846" ry="5.725" transform="translate(96.431 63.651)"/>
      <path id="Path_206" data-name="Path 206" d="M354.051,314.678a2.662,2.662,0,0,0-3.166-2.038L321.4,319.03a2.663,2.663,0,1,0,1.128,5.2l29.486-6.391a2.662,2.662,0,0,0,2.038-3.166Z" transform="translate(-215.561 -201.6)"/>
      <path id="Path_207" data-name="Path 207" d="M350.884,340.509,321.4,346.9a2.663,2.663,0,1,0,1.128,5.2l29.486-6.391a2.663,2.663,0,0,0-1.128-5.2Z" transform="translate(-215.56 -219.575)"/>
      <path id="Path_208" data-name="Path 208" d="M179.514,104.276H177.92v-4.7A10.825,10.825,0,0,0,164.8,89L150.922,92a26.421,26.421,0,0,0,1.613-7.811q.135-2.632.217-5.272a11.9,11.9,0,0,0-.182-23.294q-.481-10.006-1.654-19.961c6.231-6.648,11.128-14.054,12.666-19.5.976-3.455.7-6.22-.825-8.217a6.828,6.828,0,0,0-5.543-2.834c-2.542-.009-5.32,1.21-8.483,3.725a9.471,9.471,0,0,0-1.2-5.629C146.609,1.746,144.725,0,140.981,0c-4.978,0-8.89,2.794-11.748,6.023a8.769,8.769,0,0,0-1.508-3.48A6.452,6.452,0,0,0,122.377,0c-4.316,0-7.72,3.579-11.107,7.919a51.5,51.5,0,0,0-5.718-2.773c-1.057-.431-2.146-.829-3.248-1.188A30.692,30.692,0,0,0,91.391,2.333l-.088.006h-.027c-.492.028-.971.072-1.469.134a18.2,18.2,0,0,0-13.5,8.652C70.53,9.1,61.206,8.374,56.125,16.61a2.663,2.663,0,1,0,4.532,2.8c4.749-7.7,15.178-2.749,15.614-2.538A2.662,2.662,0,0,0,79.813,15.7c2.448-4.743,5.937-7.341,10.66-7.942.363-.045.716-.078,1.078-.1.055,0,.111-.006.169-.011a25.46,25.46,0,0,1,8.946,1.377c.97.316,1.937.67,2.872,1.051A46.176,46.176,0,0,1,108.01,12.2c-2.794,3.655-5.674,7.1-8.67,8.2a2.663,2.663,0,1,0,1.845,5c4.918-1.816,8.694-6.824,12.346-11.666,2.973-3.943,6.342-8.411,8.847-8.411.714,0,.947.227,1.109.44,1.312,1.722.677,7.051-.165,10.108a2.663,2.663,0,0,0,5.057,1.654c.046-.122,4.832-12.2,12.6-12.2,1.586,0,1.927.541,2.039.719,1.234,1.959-.453,7.6-1.981,10.79a2.663,2.663,0,0,0,4.5,2.79,48.011,48.011,0,0,1,4.434-4.813c4.187-3.939,6.426-4.371,7.2-4.371h.01a1.533,1.533,0,0,1,1.335.738c.427.56.4,1.882-.066,3.539-2.614,9.257-17.586,26.091-29.317,30.623-15.3,5.913-35.76,2.718-45.6-7.121a2.663,2.663,0,0,0-4.518,1.5,28.693,28.693,0,0,1-2.737,8.124C73.654,52.854,70,55.4,65.426,55.4h-.01c-.063,0-.126,0-.189,0a11.841,11.841,0,0,0-3.961.681c-2.733-11.55-3.8-20.883-3.15-27.764a2.663,2.663,0,1,0-5.3-.5c-.735,7.832.521,18.383,3.723,31.364a11.891,11.891,0,0,0,6.155,19.747q.087,2.642.218,5.27a26.385,26.385,0,0,0,1.5,7.5L51.954,89a10.825,10.825,0,0,0-13.12,10.576v4.7H37.241A10.14,10.14,0,0,0,27.113,114.4v6.7a10.14,10.14,0,0,0,10.128,10.128h1.594v28.355a10.886,10.886,0,0,0,8.532,10.58l53.31,11.553h.009c.074.016.149.027.224.036l.051.008a2.671,2.671,0,0,0,.268.014h14.3a2.67,2.67,0,0,0,.268-.014l.051-.008c.076-.009.151-.021.224-.036h.009l53.309-11.553a10.886,10.886,0,0,0,8.532-10.58v-3.631a2.663,2.663,0,0,0-5.326,0v3.631a5.53,5.53,0,0,1-4.334,5.375l-50.083,10.854V104.549L165.931,94.2a5.5,5.5,0,0,1,6.664,5.372v5.587a10.14,10.14,0,0,0-6,9.245v6.7a10.139,10.139,0,0,0,6,9.245v14.955a2.663,2.663,0,1,0,5.326,0V131.233h1.594a10.14,10.14,0,0,0,10.128-10.128v-6.7a10.14,10.14,0,0,0-10.128-10.128ZM156.789,67.3a6.581,6.581,0,0,1-3.91,6.005q.078-6.022-.1-12.059A6.588,6.588,0,0,1,156.789,67.3Zm-98.136,0a6.588,6.588,0,0,1,4-6.051c-.115,4.013-.141,8.04-.088,12.056A6.58,6.58,0,0,1,58.652,67.3Zm9.577,16.623c-.4-7.736-.473-15.593-.225-23.391,5.441-.825,9.9-4.311,13-10.209a32.784,32.784,0,0,0,2.21-5.372,45.772,45.772,0,0,0,20.634,8.037,54.682,54.682,0,0,0,27.214-2.673c4.945-1.91,10.2-5.541,15.023-9.9a284.083,284.083,0,0,1,1.134,43.505,21.058,21.058,0,0,1-2.83,9.5l-29.157,6.319h-13.7L70.87,93.095a21.029,21.029,0,0,1-2.64-9.176ZM103.9,105.064h8.946v71.392H103.9ZM32.439,121.1v-6.7a4.808,4.808,0,0,1,4.8-4.8h2.792a4.808,4.808,0,0,1,4.8,4.8v6.7a4.808,4.808,0,0,1-4.8,4.8H37.242A4.808,4.808,0,0,1,32.439,121.1Zm11.722,38.483V130.35a10.14,10.14,0,0,0,6-9.245v-6.7a10.139,10.139,0,0,0-6-9.245V99.572A5.5,5.5,0,0,1,50.826,94.2l47.753,10.349v71.268L48.5,164.963a5.53,5.53,0,0,1-4.334-5.375ZM184.316,121.1a4.808,4.808,0,0,1-4.8,4.8h-2.792a4.808,4.808,0,0,1-4.8-4.8v-6.7a4.808,4.808,0,0,1,4.8-4.8h2.792a4.808,4.808,0,0,1,4.8,4.8Z" transform="translate(-27.113 0)"/>
    </g>
  </g>
</svg>
