<svg xmlns="http://www.w3.org/2000/svg" width="102.056" height="99.595" viewBox="0 0 102.056 99.595">
  <g id="travel" transform="translate(-29.084 -32)">
    <circle id="Ellipse_15" data-name="Ellipse 15" cx="38.825" cy="38.825" r="38.825" transform="translate(29.084 45.504)" fill="#efefd2"/>
    <g id="Group_53" data-name="Group 53" transform="translate(66.027 44.722)">
      <path id="Path_209" data-name="Path 209" d="M138.071,81.189,120.625,69.71l7.29-2.382a24.157,24.157,0,0,1,15.99.344l14.934,6.6Z" transform="translate(-118.937 -64.45)" fill="#c1dbdc"/>
      <path id="Path_210" data-name="Path 210" d="M135.759,80.574a1.7,1.7,0,0,1-.928-.278L117.385,68.817a1.688,1.688,0,0,1,.4-3.015l7.289-2.382a25.932,25.932,0,0,1,17.106.369l15.024,6.64a1.688,1.688,0,0,1-.149,3.145l-20.768,6.913A1.7,1.7,0,0,1,135.759,80.574ZM122.168,67.922,136,77.025,151.85,71.75l-10.94-4.838a22.506,22.506,0,0,0-14.783-.284Z" transform="translate(-116.625 -62.147)" fill="#4c241d"/>
    </g>
    <g id="Group_54" data-name="Group 54" transform="translate(45.613 47.793)">
      <path id="Path_211" data-name="Path 211" d="M137.984,74.371a14.772,14.772,0,0,1,15.19,2.822,3.725,3.725,0,0,1-.39,5.839c-10.292,6.948-45.672,22.841-70.377,21.851L72.253,91.7l2.345-.766A11.652,11.652,0,0,1,86.591,94Z" transform="translate(-70.565 -71.717)" fill="#e5efef"/>
      <path id="Path_212" data-name="Path 212" d="M82.363,104.321q-1.182,0-2.337-.046a1.687,1.687,0,0,1-1.269-.656L68.6,90.438a1.688,1.688,0,0,1,.813-2.635l2.345-.766a13.218,13.218,0,0,1,12.91,2.713L135.07,70.5A16.554,16.554,0,0,1,152,73.652a5.415,5.415,0,0,1,1.766,4.421,5.34,5.34,0,0,1-2.348,4.065C141.766,88.651,107.756,104.321,82.363,104.321Zm-1.418-3.393c24.435.556,59.307-15.328,68.581-21.588a1.985,1.985,0,0,0,.87-1.512,2.059,2.059,0,0,0-.672-1.68,13.158,13.158,0,0,0-13.451-2.493L84.881,93.283a1.689,1.689,0,0,1-1.816-.4,9.906,9.906,0,0,0-10.256-2.633l-.073.024Z" transform="translate(-68.252 -69.423)" fill="#4c241d"/>
    </g>
    <g id="Group_55" data-name="Group 55" transform="translate(78.266 61.304)">
      <path id="Path_213" data-name="Path 213" d="M175.435,105.437l-15.172,24.487a6.288,6.288,0,0,1-3.359,2.654L149.624,135l6.931-23.279" transform="translate(-147.936 -103.749)" fill="#e5efef"/>
      <path id="Path_214" data-name="Path 214" d="M147.313,134.378a1.688,1.688,0,0,1-1.618-2.17l6.93-23.28a1.688,1.688,0,0,1,3.236.963l-6.005,20.173,4.2-1.4a4.606,4.606,0,0,0,2.457-1.942l15.172-24.486a1.688,1.688,0,1,1,2.87,1.779L159.387,128.5a7.989,7.989,0,0,1-4.262,3.366l-7.279,2.424A1.683,1.683,0,0,1,147.313,134.378Z" transform="translate(-145.625 -101.438)" fill="#4c241d"/>
    </g>
    <g id="Group_56" data-name="Group 56" transform="translate(47.996 32)">
      <path id="Path_215" data-name="Path 215" d="M228.387,78.656A1.688,1.688,0,0,1,227.007,76l3.139-4.466a1.688,1.688,0,0,1,2.763,1.942l-3.139,4.466A1.684,1.684,0,0,1,228.387,78.656Z" transform="translate(-162.215 -54.434)" fill="#4c241d"/>
      <path id="Path_216" data-name="Path 216" d="M206.992,43.816h-.011A5.908,5.908,0,0,1,206.992,32H207a5.908,5.908,0,0,1-.011,11.816Zm0-8.44a2.532,2.532,0,0,0,0,5.064h0a2.532,2.532,0,0,0,0-5.064Z" transform="translate(-147.409 -32)" fill="#4c241d"/>
      <path id="Path_217" data-name="Path 217" d="M206.992,231.816h-.011A5.908,5.908,0,0,1,206.992,220H207a5.908,5.908,0,0,1,5.9,5.919l-1.688,0,1.688,0a5.908,5.908,0,0,1-5.908,5.9Zm0-8.44a2.532,2.532,0,0,0,0,5.064h0a2.532,2.532,0,0,0,0-5.064Z" transform="translate(-147.409 -140.662)" fill="#4c241d"/>
      <circle id="Ellipse_16" data-name="Ellipse 16" cx="1.911" cy="1.911" r="1.911" transform="translate(8.794 19.179)" fill="#4c241d"/>
      <circle id="Ellipse_17" data-name="Ellipse 17" cx="1.911" cy="1.911" r="1.911" transform="translate(61.124 58.004)" fill="#4c241d"/>
      <path id="Path_218" data-name="Path 218" d="M75.585,56.115a1.688,1.688,0,0,1-1.191-2.884l6.213-6.19a1.688,1.688,0,0,1,2.382,2.392l-6.213,6.19A1.682,1.682,0,0,1,75.585,56.115Z" transform="translate(-73.897 -40.409)" fill="#4c241d"/>
      <path id="Path_219" data-name="Path 219" d="M81.8,56.111a1.683,1.683,0,0,1-1.2-.5L74.416,49.4a1.688,1.688,0,0,1,2.392-2.382L83,53.232a1.688,1.688,0,0,1-1.2,2.879Z" transform="translate(-73.912 -40.393)" fill="#4c241d"/>
    </g>
    <g id="Group_57" data-name="Group 57" transform="translate(35.836 75.889)">
      <path id="Path_220" data-name="Path 220" d="M75.249,140a26.165,26.165,0,1,0,26.165,26.165A26.194,26.194,0,0,0,75.249,140Zm-21.1,26.165a21.069,21.069,0,0,1,34.1-16.584L58.665,179.168A20.975,20.975,0,0,1,54.148,166.165Zm21.1,21.1a20.975,20.975,0,0,1-13-4.517l29.587-29.587a21.068,21.068,0,0,1-16.584,34.1Z" transform="translate(-47.396 -138.312)" fill="#e66353"/>
      <path id="Path_221" data-name="Path 221" d="M72.937,191.706a27.853,27.853,0,1,1,27.853-27.853A27.884,27.884,0,0,1,72.937,191.706Zm0-52.33a24.477,24.477,0,1,0,24.477,24.477A24.505,24.505,0,0,0,72.937,139.376Zm0,47.265a22.532,22.532,0,0,1-14.046-4.878,1.688,1.688,0,0,1-.151-2.52l29.587-29.587a1.688,1.688,0,0,1,2.52.151,22.534,22.534,0,0,1,4.878,14.046,22.815,22.815,0,0,1-22.789,22.789Zm-10.4-6.422a19.129,19.129,0,0,0,10.4,3.046A19.434,19.434,0,0,0,92.35,163.853a19.127,19.127,0,0,0-3.046-10.4Zm-6.185-1.676c-.034,0-.067,0-.1,0a1.684,1.684,0,0,1-1.226-.642,22.532,22.532,0,0,1-4.878-14.046,22.815,22.815,0,0,1,22.789-22.789,22.532,22.532,0,0,1,14.046,4.878,1.688,1.688,0,0,1,.151,2.52L57.546,178.049A1.687,1.687,0,0,1,56.353,178.544Zm16.584-34.1a19.434,19.434,0,0,0-19.413,19.413,19.127,19.127,0,0,0,3.046,10.4l26.767-26.767a19.127,19.127,0,0,0-10.4-3.046Z" transform="translate(-45.084 -136)" fill="#4c241d"/>
    </g>
  </g>
</svg>
