<svg xmlns="http://www.w3.org/2000/svg" width="158" height="122.81" viewBox="0 0 158 122.81">
  <g id="symbol" transform="translate(0 -57.017)">
    <path id="Path_148" data-name="Path 148" d="M7.5,189.433v45.493h5.548a20.32,20.32,0,0,1,12.528,4.227,34.073,34.073,0,0,0,21.06,7.246h60.717a8.555,8.555,0,0,0,8.555-8.555h0a8.555,8.555,0,0,0-8.555-8.555h11.43a8.555,8.555,0,0,0,8.555-8.555h0a8.555,8.555,0,0,0-8.555-8.555H129a8.555,8.555,0,0,0,8.555-8.555h0A8.555,8.555,0,0,0,129,195.069H118.783a8.555,8.555,0,0,0,8.555-8.555h0a8.555,8.555,0,0,0-8.555-8.555H71.708l9.254-5.343a8.555,8.555,0,0,0,3.131-11.686h0A8.555,8.555,0,0,0,72.407,157.8L30.442,182.027a34.262,34.262,0,0,0-4.764,3.1,20.6,20.6,0,0,1-12.625,4.3Z" transform="translate(-5.186 -68.887)" fill="#ffccbc"/>
    <path id="Path_149" data-name="Path 149" d="M169.087,281.145h-3.95a8.555,8.555,0,0,1,.337,2.557,8.68,8.68,0,0,1-8.742,8.381h0a3.389,3.389,0,0,0-2.745,5.395,5.472,5.472,0,0,1,1.27,3.4,8.671,8.671,0,0,1-8.73,8.315h0a4.005,4.005,0,0,0-3.478,6.026,4.9,4.9,0,0,1,.781,2.53,8.555,8.555,0,0,1-8.555,8.555H74.559a34.257,34.257,0,0,1-8.819-1.151c.034.026.069.051.1.077a34.073,34.073,0,0,0,21.06,7.246h60.539a8.671,8.671,0,0,0,8.73-8.315,8.555,8.555,0,0,0-8.552-8.8h11.252a8.671,8.671,0,0,0,8.73-8.315,8.555,8.555,0,0,0-8.552-8.8h10.215a8.555,8.555,0,0,0,8.552-8.8A8.671,8.671,0,0,0,169.087,281.145Z" transform="translate(-45.453 -154.963)" fill="#ff8a65"/>
    <circle id="Ellipse_10" data-name="Ellipse 10" cx="7.592" cy="7.592" r="7.592" transform="translate(131.802 71.847)" fill="#bbdefb"/>
    <circle id="Ellipse_11" data-name="Ellipse 11" cx="5.756" cy="5.756" r="5.756" transform="translate(117.749 59.331)" fill="#bbdefb"/>
    <path id="Path_150" data-name="Path 150" d="M237.839,175.453a16.593,16.593,0,0,1,12.848-15.4,8.555,8.555,0,0,0-11.1-2.253L229,163.909a8.556,8.556,0,0,1-4.178,8.707l-9.254,5.343h22.356A16.731,16.731,0,0,1,237.839,175.453Z" transform="translate(-149.044 -68.888)" fill="#ff8a65"/>
    <path id="Path_151" data-name="Path 151" d="M292.243,281.145h-2.462a22.882,22.882,0,0,1-22.988,20.585c-.413,0-.822-.016-1.229-.04a8.556,8.556,0,0,1-6.854,13.675h-11.43a8.555,8.555,0,0,1,8.555,8.555h0a8.555,8.555,0,0,1-8.555,8.555H270.6a8.555,8.555,0,0,0,8.555-8.555h0a8.555,8.555,0,0,0-8.555-8.555h11.43a8.555,8.555,0,1,0,0-17.11h10.215a8.555,8.555,0,0,0,0-17.11Z" transform="translate(-145.112 -154.963)" fill="#ff8a65"/>
    <path id="Path_152" data-name="Path 152" d="M333.612,177.719a2.006,2.006,0,0,1-.85-2.017,11.185,11.185,0,0,0-10.218-13.1,11.149,11.149,0,0,0-8.293,2.856,1.945,1.945,0,0,1-2.227.241,16.512,16.512,0,0,0-24.316,13.849,16.782,16.782,0,0,0,.085,2.506H312.51a8.555,8.555,0,0,1,8.555,8.555h0a8.555,8.555,0,0,1-8.555,8.555h10.215a8.555,8.555,0,0,1,8.555,8.555h0a8.555,8.555,0,0,1-8.555,8.555H312.51a8.543,8.543,0,0,1,6.854,3.435c.407.024.817.038,1.229.04a22.993,22.993,0,0,0,13.018-42.03Z" transform="translate(-198.913 -72.983)" fill="#bbdefb"/>
    <path id="Path_153" data-name="Path 153" d="M389.214,177.72a2.005,2.005,0,0,1-.85-2.017,11.183,11.183,0,0,0-13.253-12.9,10.993,10.993,0,0,1,1,3.435,11.275,11.275,0,0,1-.088,3.294,2.005,2.005,0,0,0,.85,2.017,23.069,23.069,0,0,1,7.36,29.983,8.553,8.553,0,0,1-5.9,14.745H368.112a8.543,8.543,0,0,1,6.854,3.435c.407.024.817.038,1.229.04a22.993,22.993,0,0,0,13.018-42.031Z" transform="translate(-254.515 -72.984)" fill="#64b5f6"/>
    <g id="Group_41" data-name="Group 41" transform="translate(0 57.017)">
      <path id="Path_154" data-name="Path 154" d="M238.654,333.72h9.685a2.314,2.314,0,0,0,0-4.629h-9.685a2.314,2.314,0,1,0,0,4.629Z" transform="translate(-163.407 -245.131)"/>
      <path id="Path_155" data-name="Path 155" d="M429.51,117.386a9.906,9.906,0,1,0-9.906-9.906A9.918,9.918,0,0,0,429.51,117.386Zm0-15.184a5.278,5.278,0,1,1-5.278,5.278A5.284,5.284,0,0,1,429.51,102.2Z" transform="translate(-290.117 -85.058)"/>
      <path id="Path_156" data-name="Path 156" d="M382.135,73.157a8.07,8.07,0,1,0-8.07-8.07A8.079,8.079,0,0,0,382.135,73.157Zm0-11.511a3.441,3.441,0,1,1-3.441,3.441A3.445,3.445,0,0,1,382.135,61.646Z" transform="translate(-258.631 -57.017)"/>
      <path id="Path_157" data-name="Path 157" d="M158,198.442a10.882,10.882,0,0,0-10.87-10.87h-.018a25.647,25.647,0,0,0-.16-2.955,2.314,2.314,0,0,0-4.6.518A20.616,20.616,0,0,1,132.1,205.471a10.864,10.864,0,0,0-8.284-17.9h-1.32a10.865,10.865,0,0,0-8.9-17.11H91.1c0-.032,0-.064,0-.1a14.208,14.208,0,0,1,20.905-11.906,4.264,4.264,0,0,0,4.877-.561,8.87,8.87,0,0,1,14.68,8.125,4.334,4.334,0,0,0,1.829,4.333,20.711,20.711,0,0,1,5.519,5.512,2.315,2.315,0,0,0,3.827-2.6,25.328,25.328,0,0,0-6.585-6.628A13.5,13.5,0,0,0,114,154.273a18.892,18.892,0,0,0-11.493-1.93,10.881,10.881,0,0,0-13.125-1.732l-8.1,4.676a10.882,10.882,0,0,0-15.219-4.676L33.54,169.388a2.314,2.314,0,1,0,2.314,4.009l32.525-18.778a6.241,6.241,0,1,1,6.241,10.809l-9.254,5.343a2.316,2.316,0,0,0,1.157,4.319H113.6a6.241,6.241,0,1,1,0,12.481H75.247a2.314,2.314,0,0,0,0,4.629h48.564a6.241,6.241,0,0,1,0,12.481H95.733a2.314,2.314,0,0,0,0,4.629H113.6a6.241,6.241,0,0,1,0,12.481H75.247a2.314,2.314,0,1,0,0,4.629h26.919a6.241,6.241,0,0,1,0,12.481H41.45a31.586,31.586,0,0,1-19.634-6.755,22.723,22.723,0,0,0-13.953-4.718H4.629V186.564H7.868a23.019,23.019,0,0,0,14.043-4.791,32.019,32.019,0,0,1,4.443-2.891,2.315,2.315,0,0,0-2.194-4.076,36.694,36.694,0,0,0-5.086,3.309,18.366,18.366,0,0,1-11.207,3.819l-5.553,0A2.315,2.315,0,0,0,0,184.25v45.493a2.314,2.314,0,0,0,2.314,2.314H7.862a18.077,18.077,0,0,1,11.1,3.736,36.173,36.173,0,0,0,22.485,7.737h84.035a10.865,10.865,0,0,0,8.9-17.11h2.535a10.865,10.865,0,0,0,8.9-17.11h1.32A10.882,10.882,0,0,0,158,198.442ZM82.373,160,91.7,154.62a6.239,6.239,0,0,1,5.16-.493,18.8,18.8,0,0,0-10.375,16.048c0,.1-.007.191-.009.287H75.16C75.617,170.04,82.376,167.578,82.373,160Zm43.112,78.9H111.062a10.845,10.845,0,0,0,0-12.481h14.423a6.241,6.241,0,1,1,0,12.481Zm11.43-17.11H122.492a10.849,10.849,0,0,0,1.592-9.105,25.2,25.2,0,0,0,10.6-3.376h2.234a6.241,6.241,0,0,1,0,12.481Zm3.507-17.11A25.057,25.057,0,0,0,146.68,192.2h.451a6.241,6.241,0,0,1,0,12.481Z" transform="translate(0 -120.722)"/>
    </g>
  </g>
</svg>
