<svg xmlns="http://www.w3.org/2000/svg" width="144.847" height="100.963" viewBox="0 0 144.847 100.963">
  <g id="man" transform="translate(0.001 -76.989)">
    <g id="Group_42" data-name="Group 42" transform="translate(57.688 125.682)">
      <path id="Path_158" data-name="Path 158" d="M203.373,257.338l-.819-2a1.863,1.863,0,0,1,1.02-2.429l12.054-4.923a1.863,1.863,0,0,1,2.429,1.02l.819,2a1.863,1.863,0,0,1-1.02,2.429L205.8,258.358A1.863,1.863,0,0,1,203.373,257.338Z" transform="translate(-202.415 -247.842)" fill="#373c41"/>
    </g>
    <g id="XMLID_291_" transform="translate(26.351 141.029)">
      <path id="Path_159" data-name="Path 159" d="M163.98,325.15a6.035,6.035,0,0,1-3.153-.239L129.872,314l-30.355,5.019a6.066,6.066,0,1,1-1.979-11.969l31.892-5.274a6.065,6.065,0,0,1,3.007.264l32.424,11.433a6.067,6.067,0,0,1-.881,11.68Z" transform="translate(-92.461 -301.692)" fill="#414b82"/>
    </g>
    <path id="Path_160" data-name="Path 160" d="M84.368,190.323a7.537,7.537,0,0,0-8.415-6.541l-12.725,1.594a7.537,7.537,0,0,0-6.445,9l7.527,36.545a6.437,6.437,0,0,0,8.833,4.621l14.577-18.472Z" transform="translate(-40.489 -76.314)" fill="#64afff"/>
    <ellipse id="Ellipse_12" data-name="Ellipse 12" cx="11.157" cy="11.157" rx="11.157" ry="11.157" transform="translate(14.238 102.178) rotate(-79.926)" fill="#ffb69e"/>
    <g id="XMLID_268_" transform="translate(25.683 110.803)">
      <path id="Path_161" data-name="Path 161" d="M142.543,251.171h-.071l-17.089.235-2.169-4.138h-5.649l-3.3,4.713,3.6,6.869a5.055,5.055,0,0,0,4.477,2.708h.07l20.194-.278a5.055,5.055,0,0,0-.068-10.11Z" transform="translate(-107.387 -232.554)" fill="#ffb69e"/>
      <path id="Path_162" data-name="Path 162" d="M97,215.065l8.944-4.713-6.294-12.006a5.055,5.055,0,0,0-8.954,4.694Z" transform="translate(-90.119 -195.636)" fill="#4699f2"/>
    </g>
    <g id="Group_43" data-name="Group 43" transform="translate(-0.001 104.435)">
      <path id="Path_163" data-name="Path 163" d="M54.579,208.438H23.163l-6-28.276a8.674,8.674,0,0,0-16.969,3.6l12.6,58.49a5.743,5.743,0,0,0,5.612,4.552H60.418a4.719,4.719,0,0,0,4.714-4.72V218.992a10.554,10.554,0,0,0-10.554-10.554Z" transform="translate(0.001 -173.29)" fill="#783c28"/>
    </g>
    <g id="Group_44" data-name="Group 44" transform="translate(74.975 164.473)">
      <path id="Path_164" data-name="Path 164" d="M292.371,383.951H266.464a3.391,3.391,0,0,0-3.391,3.391v6.611a3.465,3.465,0,0,0,3.391,3.477h25.907a3.465,3.465,0,0,0,3.391-3.477v-6.611A3.391,3.391,0,0,0,292.371,383.951Z" transform="translate(-263.073 -383.951)" fill="#783c28"/>
    </g>
    <path id="Path_165" data-name="Path 165" d="M478.986,76.989h-6.2a2.276,2.276,0,0,0-2.277,2.277V147.43a2.277,2.277,0,0,0,2.277,2.277h6.2a2.277,2.277,0,0,0,2.277-2.277V79.266A2.277,2.277,0,0,0,478.986,76.989Z" transform="translate(-336.416 0)" fill="#373c41"/>
    <path id="Path_166" data-name="Path 166" d="M437.072,370.543h-21.5a2.861,2.861,0,0,0-2.861,2.861V383.8c0,1.58,1.281,4.048,2.861,4.048h21.5c1.58,0,2.861-2.468,2.861-4.048V373.4A2.86,2.86,0,0,0,437.072,370.543Z" transform="translate(-295.087 -209.891)" fill="#a5c8cd"/>
  </g>
</svg>
