<svg id="sick" xmlns="http://www.w3.org/2000/svg" width="139.326" height="139.49" viewBox="0 0 139.326 139.49">
  <g id="Group_22" data-name="Group 22" transform="translate(2.247 2.405)">
    <g id="Group_9" data-name="Group 9" transform="translate(20.225 74.787)">
      <path id="Path_28" data-name="Path 28" d="M73.832,35.27l-2.157,15.1L58.191,41.382,44.708,50.371l-2.157-15.1C16.775,40.146,11,72.843,11,72.843h94.382s-5.775-32.7-31.551-37.573Z" transform="translate(-11 -35.27)" fill="#ff826e"/>
    </g>
    <g id="Group_10" data-name="Group 10" transform="translate(67.416 74.157)">
      <path id="Path_29" data-name="Path 29" d="M47.64,35.619l-2.157,15.1L32,41.732l8.989-6.742A34.642,34.642,0,0,1,47.64,35.619Z" transform="translate(-32 -34.99)" fill="#fc6e51"/>
    </g>
    <g id="Group_11" data-name="Group 11" transform="translate(51.775 74.157)">
      <path id="Path_30" data-name="Path 30" d="M40.68,41.732,27.2,50.72l-2.157-15.1a34.643,34.643,0,0,1,6.652-.629Z" transform="translate(-25.04 -34.99)" fill="#fc6e51"/>
    </g>
    <g id="Group_12" data-name="Group 12" transform="translate(0 112.36)">
      <path id="Path_31" data-name="Path 31" d="M136.832,51.99V74.462H2V51.99H136.832Z" transform="translate(-2 -51.99)" fill="#b4dd7f"/>
    </g>
    <g id="Group_13" data-name="Group 13" transform="translate(76.405 20.225)">
      <path id="Path_32" data-name="Path 32" d="M51.73,44.7s6.742,0,6.742-6.742a6.267,6.267,0,0,0-2.045-5.011A55.713,55.713,0,0,0,61.079,10.99H71.955A11.494,11.494,0,0,1,83.191,22.226V53.687A11.479,11.479,0,0,1,71.955,64.923H36V58.181h4.494s4.494,0,6.742-2.247H74.2V46.945H51.73V44.7Z" transform="translate(-36 -10.99)" fill="#b4dd7f"/>
    </g>
    <g id="Group_14" data-name="Group 14" transform="translate(11.236 20.225)">
      <path id="Path_33" data-name="Path 33" d="M54.191,58.181v6.742H18.236A11.479,11.479,0,0,1,7,53.687V22.226A11.494,11.494,0,0,1,18.236,10.99h6.742l4.494,4.494-8.989,8.989,13.034,8.7a6.29,6.29,0,0,0-1.8,4.787c0,6.742,6.742,6.742,6.742,6.742v2.247s0,11.236,11.236,11.236Z" transform="translate(-7 -10.99)" fill="#b4dd7f"/>
    </g>
    <g id="Group_15" data-name="Group 15" transform="translate(24.719)">
      <path id="Path_34" data-name="Path 34" d="M75.922,33.451H75.9a2.056,2.056,0,0,0,.022-.382V24.844a4.886,4.886,0,0,0-4.876-4.876h-30.7a4.886,4.886,0,0,0-4.876,4.876v8.225a2.056,2.056,0,0,0,.022.382h-.022s-3.865,0-4.427,8.989h-.067a7.814,7.814,0,0,0-4.944,1.955L13,35.7l8.989-8.989-4.494-4.494-2.247-2.247s6.742-13.483,24.719-8.989L46.708,1.99S78.169,6.484,89.4,17.72a28.394,28.394,0,0,1,.36,4.494A55.714,55.714,0,0,1,85.113,44.17a7.913,7.913,0,0,0-4.7-1.73c0-8.989-4.494-8.989-4.494-8.989Z" transform="translate(-13 -1.99)" fill="#656d78"/>
    </g>
    <g id="Group_16" data-name="Group 16" transform="translate(92.135 40.45)">
      <path id="Path_35" data-name="Path 35" d="M43,33.473V19.99a7.913,7.913,0,0,1,4.7,1.73,6.267,6.267,0,0,1,2.045,5.011C49.742,33.473,43,33.473,43,33.473Z" transform="translate(-43 -19.99)" fill="#f0d0b4"/>
    </g>
    <g id="Group_17" data-name="Group 17" transform="translate(58.427 67.416)">
      <path id="Path_36" data-name="Path 36" d="M45.978,31.99v6.742l-8.989,6.742L28,38.732V31.99H45.978Z" transform="translate(-28 -31.99)" fill="#f0d0b4"/>
    </g>
    <g id="Group_18" data-name="Group 18" transform="translate(42.697 31.461)">
      <path id="Path_37" data-name="Path 37" d="M70.438,24.979v15.73H63.7V49.7h2.247C63.7,51.945,59.2,51.945,59.2,51.945H32.236C21,51.945,21,40.709,21,40.709V27.226c0-.809.022-1.551.067-2.247.562-8.989,4.427-8.989,4.427-8.989h.022a4.859,4.859,0,0,0,4.854,4.494h30.7a4.859,4.859,0,0,0,4.854-4.494h.022S70.438,15.99,70.438,24.979Z" transform="translate(-21 -15.99)" fill="#f0d0b4"/>
    </g>
    <g id="Group_19" data-name="Group 19" transform="translate(35.955 40.45)">
      <path id="Path_38" data-name="Path 38" d="M24.809,19.99c-.045.7-.067,1.438-.067,2.247V33.473S18,33.473,18,26.732a6.29,6.29,0,0,1,1.8-4.787,7.814,7.814,0,0,1,4.944-1.955Z" transform="translate(-18 -19.99)" fill="#f0d0b4"/>
    </g>
    <g id="Group_20" data-name="Group 20" transform="translate(47.191 17.978)">
      <path id="Path_39" data-name="Path 39" d="M63.45,14.866v8.225a2.058,2.058,0,0,1-.022.382,4.859,4.859,0,0,1-4.854,4.494h-30.7a4.859,4.859,0,0,1-4.854-4.494A2.056,2.056,0,0,1,23,23.091V14.866A4.886,4.886,0,0,1,27.876,9.99h30.7A4.886,4.886,0,0,1,63.45,14.866Z" transform="translate(-23 -9.99)" fill="#e6e9ed"/>
    </g>
    <g id="Group_21" data-name="Group 21" transform="translate(85.393 56.18)">
      <path id="Path_40" data-name="Path 40" d="M69.214,26.99v8.989H40V26.99H69.214Z" transform="translate(-40 -26.99)" fill="#e6e9ed"/>
    </g>
  </g>
  <g id="Group_23" data-name="Group 23" transform="translate(0 0)">
    <path id="Path_41" data-name="Path 41" d="M119.656,113.444c-1.461-6-7.187-24.971-22.53-33.708h18.481A13.665,13.665,0,0,0,129.09,66.253V34.792a13.665,13.665,0,0,0-13.483-13.483h-8.719a23.508,23.508,0,0,0-.315-2.688l-.133-.667-.481-.481C94.328,5.841,63.308,1.3,61.993,1.107L60.677.92,54.009,9.805c-18.4-3.789-25.73,10.351-25.8,10.5l-.5,1H25.719A13.665,13.665,0,0,0,12.236,34.792V66.253A13.665,13.665,0,0,0,25.719,79.736H44.2c-15.344,8.737-21.07,27.706-22.53,33.708H1V140.41H140.326V113.444Zm-4.6,0H99.877V99.961H95.382v13.483H72.91V88.43l12.957,8.638,2.319-16.227C106.51,85.785,113.2,106.084,115.054,113.444ZM49.434,38.421a7.122,7.122,0,0,0,5.881,3.112H86.007a7.113,7.113,0,0,0,6.029-3.369,11.1,11.1,0,0,1,1.1,5.616V57.264H86.393v4.494H72.91v4.494H86.393v1.971a12.121,12.121,0,0,1-2.247.276H57.18c-8.658,0-8.98-8.079-8.989-8.989V46.028c0-4.139.625-6.389,1.243-7.607Zm3.252-4.011V26.187a2.634,2.634,0,0,1,2.631-2.631H86.009a2.634,2.634,0,0,1,2.631,2.631V34.41a2.632,2.632,0,0,1-2.631,2.629H55.317A2.632,2.632,0,0,1,52.686,34.41ZM97.629,46.545a3.99,3.99,0,0,1,2.247,3.978,3.98,3.98,0,0,1-2.247,3.969ZM90.888,66.253V61.758h24.719v4.494ZM83.764,80l-1.339,9.375-7.874-5.249,5.84-4.38c1.166.025,2.281.124,3.373.254Zm-6.36-7v3.371l-6.742,5.056-6.742-5.056V72.994Zm-16.47,6.748,5.84,4.38L58.9,89.372,57.562,80C58.654,79.866,59.769,79.767,60.935,79.743ZM124.6,34.792V66.253a9.224,9.224,0,0,1-8.989,8.989H81.9V72.994h2.247c.506,0,4.654-.092,7.524-2.247H120.1V57.264h-18.64a8.464,8.464,0,0,0,2.91-6.742,8.821,8.821,0,0,0-1.7-5.436A58.818,58.818,0,0,0,106.94,25.8h8.667a9.224,9.224,0,0,1,8.989,8.989ZM54.389,14.5l1.447.362,6.825-9.1c5.867.969,29.906,5.4,39.6,14.389.29,2.348.892,10.818-3.312,22.128a9.733,9.733,0,0,0-1.393-.447c-.427-5.512-2.654-7.751-4.422-8.661V26.19a7.135,7.135,0,0,0-7.126-7.126H55.317a7.135,7.135,0,0,0-7.126,7.126V33.25c-1.6.953-3.557,3.2-4.243,8.539A9.68,9.68,0,0,0,40.955,43l-9.463-6.308,8.64-8.64L33.07,20.99c2.155-2.975,8.6-9.67,21.319-6.49ZM43.7,54.5a3.99,3.99,0,0,1-2.247-3.978A3.975,3.975,0,0,1,43.7,46.556ZM16.73,66.253V34.792A9.224,9.224,0,0,1,25.719,25.8H31.53l2.247,2.247-9.337,9.337,13.414,8.944a9.45,9.45,0,0,0-.9,4.191A8.47,8.47,0,0,0,43.7,59.2v.315c0,4.663,2.818,13.483,13.483,13.483h2.247v2.247H25.719A9.224,9.224,0,0,1,16.73,66.253ZM53.142,80.839l2.319,16.227,12.955-8.638v25.016H48.191V99.961H43.7v13.483H26.272C28.121,106.084,34.816,85.785,53.142,80.839Zm82.69,55.077H5.494V117.938H135.832Z" transform="translate(-1 -0.92)"/>
    <path id="Path_42" data-name="Path 42" d="M35,44.993H48.483v4.494H35Z" transform="translate(41.405 54.048)"/>
  </g>
</svg>
