<svg id="death" xmlns="http://www.w3.org/2000/svg" width="132.818" height="139.137" viewBox="0 0 132.818 139.137">
  <g id="Group_24" data-name="Group 24" transform="translate(0)">
    <path id="Path_53" data-name="Path 53" d="M169.07,139.137H54.435a.605.605,0,0,1-.624-.474l-8.8-59.155a.939.939,0,0,1,.013-.346L62.593.907A1.263,1.263,0,0,1,63.865,0h95.349a1.262,1.262,0,0,1,1.273.91L177.8,79.169a.942.942,0,0,1,.014.332l-8.115,59.156A.6.6,0,0,1,169.07,139.137Z" transform="translate(-45)"/>
    <path id="Path_54" data-name="Path 54" d="M388.343,0h-8.977l1.674,8.4L397.2,79.166a.942.942,0,0,1,.015.338l-8.18,59.633H398.2a.6.6,0,0,0,.625-.48L406.939,79.5a.944.944,0,0,0-.013-.332L389.616.91A1.262,1.262,0,0,0,388.343,0Z" transform="translate(-274.13)"/>
    <path id="Path_55" data-name="Path 55" d="M85.125,160.315l-8.842-58.844a.915.915,0,0,1,.013-.343l16.04-70.223h81l16.094,70.272a.922.922,0,0,1,.015.334l-8.155,58.8Z" transform="translate(-66.431 -21.178)" fill="#f2f0f0"/>
    <path id="Path_56" data-name="Path 56" d="M135.083,217.62l-6.7-68.334a1.264,1.264,0,0,1,.017-.364l12.983-66.506h54.327l13.045,66.647a1.259,1.259,0,0,1,.018.355l-6.167,68.2Z" transform="translate(-102.136 -78.483)" fill="#e4dedc"/>
    <path id="Path_57" data-name="Path 57" d="M127.31,30.905l13.343,16.212h54.327l13.336-16.212Z" transform="translate(-101.404 -21.178)" fill="#d1c4c4"/>
  </g>
  <rect id="Rectangle_8" data-name="Rectangle 8" width="14.099" height="16.463" transform="translate(59.357 86.924)" fill="#e09e83"/>
  <g id="Group_25" data-name="Group 25" transform="translate(31.63 42.813)">
    <path id="Path_58" data-name="Path 58" d="M158.481,242.824c0,5.066-3.1,9.172-6.931,9.172s-6.052-4.716-6.052-9.782,2.224-8.563,6.052-8.563S158.481,237.758,158.481,242.824Z" transform="translate(-145.498 -233.652)" fill="#eeaf96"/>
    <path id="Path_59" data-name="Path 59" d="M325.235,242.824c0,5.066,3.1,9.172,6.931,9.172s6.052-4.716,6.052-9.782-2.224-8.563-6.052-8.563S325.235,237.758,325.235,242.824Z" transform="translate(-268.666 -233.652)" fill="#e09e83"/>
  </g>
  <path id="Path_60" data-name="Path 60" d="M175.361,203.253V184.366a23.944,23.944,0,0,1,23.944-23.944h2.866a23.944,23.944,0,0,1,23.944,23.944v18.887a25.372,25.372,0,0,1-25.372,25.372h-.011A25.372,25.372,0,0,1,175.361,203.253Z" transform="translate(-134.332 -141.279)" fill="#ffc6a9"/>
  <path id="Path_61" data-name="Path 61" d="M246.856,160.422h-2.887a24.114,24.114,0,0,0-3.415.247,23.95,23.95,0,0,1,20.518,23.708v18.865a25.382,25.382,0,0,1-20.518,24.916,25.439,25.439,0,0,0,4.843.468h.033a25.372,25.372,0,0,0,25.361-25.383V184.377A23.944,23.944,0,0,0,246.856,160.422Z" transform="translate(-179.006 -141.279)" fill="#eeaf96"/>
  <path id="Path_62" data-name="Path 62" d="M216.987,451.836v6.74H150.724v-6.74c0-19.6,9.8-35.484,21.89-35.484H195.1C207.186,416.352,216.987,432.238,216.987,451.836Z" transform="translate(-117.449 -319.439)" fill="#ff7043"/>
  <path id="Path_63" data-name="Path 63" d="M270.548,416.353H260.83c12.09,0,19.76,15.886,19.76,35.484v6.74h11.849v-6.74C292.439,432.239,282.638,416.353,270.548,416.353Z" transform="translate(-192.901 -319.44)" fill="#ff5722"/>
  <path id="Path_64" data-name="Path 64" d="M231.242,451.342H189.2l3.754-41.634a.615.615,0,0,1,.343-.54l9-3.35c.252-.094.513.112.578.457l3.591,18.836c1.008,5.29,6.516,5.29,7.524,0l3.592-18.836c.066-.346.326-.551.579-.457l9,3.35a.615.615,0,0,1,.343.54Z" transform="translate(-143.812 -312.205)" fill="#837a91"/>
  <g id="Group_26" data-name="Group 26" transform="translate(73.236 93.591)">
    <path id="Path_65" data-name="Path 65" d="M288.134,409.708a.615.615,0,0,0-.343-.54l-9-3.35c-.252-.094-.513.111-.578.457l-.525,2.751.38.141a.615.615,0,0,1,.343.54l3.752,41.634h9.718Z" transform="translate(-277.693 -405.796)" fill="#6b6477"/>
  </g>
  <g id="Group_27" data-name="Group 27" transform="translate(37.034 16.828)">
    <path id="Path_66" data-name="Path 66" d="M220.1,178.516a3.147,3.147,0,0,1-4.871,1.429c-4.366-3.459-5.637-12.886-5.844-14.7a.627.627,0,0,0-.3-.465c-5.677-3.42-7.941-7.05-8.761-8.8a.629.629,0,0,0-1.067-.124c-5.126,6.506-21.025,8.676-24.034,9.033a.626.626,0,0,0-.549.548c-.265,2.2-1.585,11.16-5.818,14.512a3.147,3.147,0,0,1-4.871-1.429c-2.282-6.1-.9-13.575-.9-13.575s.825-20.4,18.683-23.439C200.708,138.279,204,144.95,204,144.95c17.774.879,17,19.991,17,19.991S222.38,172.416,220.1,178.516Z" transform="translate(-162.669 -140.622)" fill="#b0693c"/>
  </g>
  <g id="Group_28" data-name="Group 28" transform="translate(60.295 16.827)">
    <path id="Path_67" data-name="Path 67" d="M271.642,164.939s.777-19.112-17-19.991c0,0-2.8-5.668-18.07-4.03a15.036,15.036,0,0,1,6.742,2.381,11.627,11.627,0,0,0,4.628,2c14.665,2.766,13.98,19.641,13.98,19.641a32.82,32.82,0,0,1,.172,9.135,13.615,13.615,0,0,0,3.78,5.87,3.147,3.147,0,0,0,4.871-1.429C273.024,172.415,271.642,164.939,271.642,164.939Z" transform="translate(-236.574 -140.621)" fill="#9c5d35"/>
  </g>
</svg>
