<svg xmlns="http://www.w3.org/2000/svg" width="1284.329" height="635.727" viewBox="0 0 1284.329 635.727">
  <g id="decals" transform="translate(-68.492 -67.807)">
    <g id="virus-svgrepo-com" transform="translate(86.786 146.695) rotate(21)" opacity="0.3">
      <g id="Group_3" data-name="Group 3" transform="translate(53.677 18.464)">
        <path id="Path_3" data-name="Path 3" d="M326.853,331.206l-8.082-8.082c-2.879-2.879,1.475-7.242,4.359-4.359l8.082,8.082C334.092,329.727,329.737,334.09,326.853,331.206Z" transform="translate(-317.826 -282.607)" fill="#fb3732"/>
        <path id="Path_4" data-name="Path 4" d="M365.985,243.916h-11.43c-4.073,0-4.077-6.164,0-6.164h11.43C370.058,237.752,370.062,243.916,365.985,243.916Z" transform="translate(-345.811 -216.062)" fill="#fb3732"/>
        <path id="Path_5" data-name="Path 5" d="M318.767,118.352l8.082-8.082c2.88-2.88,7.241,1.476,4.359,4.359l-8.082,8.082C320.245,125.59,315.884,121.234,318.767,118.352Z" transform="translate(-317.821 -109.325)" fill="#fb3732"/>
      </g>
      <g id="Group_4" data-name="Group 4" transform="translate(40.154 9.565)">
        <path id="Path_6" data-name="Path 6" d="M360.36,371.409h0a7.812,7.812,0,1,1,11.048,0A7.821,7.821,0,0,1,360.36,371.409Z" transform="translate(-337.754 -307.165)" fill="#ff423d"/>
        <path id="Path_7" data-name="Path 7" d="M427.3,225.367a7.812,7.812,0,1,1,7.812-7.812A7.821,7.821,0,0,1,427.3,225.367Z" transform="translate(-388.793 -183.884)" fill="#ff423d"/>
        <path id="Path_8" data-name="Path 8" d="M360.36,74.786a7.812,7.812,0,1,1,11.048,0h0A7.821,7.821,0,0,1,360.36,74.786Z" transform="translate(-337.754 -60.639)" fill="#ff423d"/>
        <path id="Path_9" data-name="Path 9" d="M240.833,74.2a3.082,3.082,0,0,1-3.082-3.082V59.691c0-4.073,6.164-4.077,6.164,0v11.43A3.082,3.082,0,0,1,240.833,74.2Z" transform="translate(-237.751 -56.635)" fill="#ff423d"/>
      </g>
      <path id="Path_10" data-name="Path 10" d="M256,56.481V74.075a3.082,3.082,0,0,0,3.082-3.082V59.563A3.082,3.082,0,0,0,256,56.481Z" transform="translate(-212.764 -46.942)" fill="#fb3732"/>
      <path id="Path_11" data-name="Path 11" d="M237.751,365.985v-11.43c0-4.073,6.164-4.077,6.164,0v11.43C243.915,370.058,237.751,370.062,237.751,365.985Z" transform="translate(-197.597 -292.134)" fill="#ff423d"/>
      <path id="Path_12" data-name="Path 12" d="M256,351.346V368.94a3.082,3.082,0,0,0,3.082-3.082v-11.43A3.082,3.082,0,0,0,256,351.346Z" transform="translate(-212.764 -292.007)" fill="#fb3732"/>
      <g id="Group_5" data-name="Group 5" transform="translate(9.565 18.463)">
        <path id="Path_13" data-name="Path 13" d="M118.352,122.7l-8.082-8.082c-2.879-2.879,1.475-7.242,4.359-4.359l8.082,8.082C125.591,121.226,121.236,125.588,118.352,122.7Z" transform="translate(-100.427 -109.318)" fill="#ff423d"/>
        <path id="Path_14" data-name="Path 14" d="M71.121,243.916H59.691c-4.073,0-4.077-6.164,0-6.164h11.43C75.194,237.752,75.2,243.916,71.121,243.916Z" transform="translate(-56.635 -216.061)" fill="#ff423d"/>
        <path id="Path_15" data-name="Path 15" d="M110.206,326.851l8.082-8.082c2.88-2.88,7.241,1.476,4.359,4.359l-8.082,8.082C111.709,334.066,107.287,329.771,110.206,326.851Z" transform="translate(-100.362 -282.609)" fill="#ff423d"/>
      </g>
      <g id="Group_6" data-name="Group 6" transform="translate(35.424)">
        <path id="Path_16" data-name="Path 16" d="M217.555,15.625a7.812,7.812,0,1,1,7.812-7.812A7.821,7.821,0,0,1,217.555,15.625Z" transform="translate(-209.743)" fill="#ff5e5b"/>
        <path id="Path_17" data-name="Path 17" d="M217.555,435.111a7.812,7.812,0,1,1,7.812-7.812A7.821,7.821,0,0,1,217.555,435.111Z" transform="translate(-209.743 -348.638)" fill="#ff5e5b"/>
      </g>
      <path id="Path_18" data-name="Path 18" d="M256,419.486v15.625a7.812,7.812,0,1,0,0-15.625Z" transform="translate(-212.764 -348.638)" fill="#ff423d"/>
      <g id="Group_7" data-name="Group 7" transform="translate(0 10.379)">
        <path id="Path_19" data-name="Path 19" d="M63.711,74.787A7.812,7.812,0,0,1,74.759,63.739h0A7.812,7.812,0,1,1,63.711,74.787Z" transform="translate(-51.047 -61.454)" fill="#ff5e5b"/>
        <path id="Path_20" data-name="Path 20" d="M7.812,225.368a7.812,7.812,0,1,1,7.812-7.812A7.821,7.821,0,0,1,7.812,225.368Z" transform="translate(0 -184.698)" fill="#ff5e5b"/>
        <path id="Path_21" data-name="Path 21" d="M63.71,371.409a7.808,7.808,0,0,1,0-11.048h0a7.812,7.812,0,1,1,0,11.048Z" transform="translate(-51.047 -307.979)" fill="#ff5e5b"/>
        <path id="Path_22" data-name="Path 22" d="M146.424,168.691a22.267,22.267,0,1,1,22.267-22.267A22.292,22.292,0,0,1,146.424,168.691Z" transform="translate(-103.188 -113.567)" fill="#ff5e5b"/>
      </g>
      <g id="Group_8" data-name="Group 8" transform="translate(33.281)">
        <path id="Path_23" data-name="Path 23" d="M256,0V15.625A7.812,7.812,0,0,0,256,0Z" transform="translate(-246.044)" fill="#ff423d"/>
        <path id="Path_24" data-name="Path 24" d="M256,124.156v44.535a22.267,22.267,0,0,0,0-44.535Z" transform="translate(-246.044 -103.187)" fill="#ff423d"/>
        <path id="Path_25" data-name="Path 25" d="M207.009,216.964a9.956,9.956,0,1,1,9.956-9.956A9.967,9.967,0,0,1,207.009,216.964Z" transform="translate(-197.053 -163.772)" fill="#ff423d"/>
      </g>
      <path id="Path_26" data-name="Path 26" d="M256,197.053v19.911a9.956,9.956,0,1,0,0-19.911Z" transform="translate(-212.764 -163.772)" fill="#fb3732"/>
    </g>
    <g id="virus-svgrepo-com-2" data-name="virus-svgrepo-com" transform="matrix(0.974, 0.225, -0.225, 0.974, 638.324, 574.244)" opacity="0.3">
      <g id="Group_3-2" data-name="Group 3" transform="translate(72.488 24.934)">
        <path id="Path_3-2" data-name="Path 3" d="M330.017,335.9,319.1,324.983c-3.888-3.888,1.992-9.78,5.886-5.886L335.9,330.012C339.791,333.9,333.91,339.791,330.017,335.9Z" transform="translate(-317.825 -270.267)" fill="#fb3732"/>
        <path id="Path_4-2" data-name="Path 4" d="M371.061,246.076H355.626c-5.5,0-5.506-8.324,0-8.324h15.435C376.561,237.752,376.567,246.076,371.061,246.076Z" transform="translate(-343.818 -208.461)" fill="#fb3732"/>
        <path id="Path_5-2" data-name="Path 5" d="M319.1,121.515,330.012,110.6c3.889-3.889,9.779,1.993,5.886,5.886L324.984,127.4C321.095,131.29,315.2,125.408,319.1,121.515Z" transform="translate(-317.821 -109.325)" fill="#fb3732"/>
      </g>
      <g id="Group_4-2" data-name="Group 4" transform="translate(54.225 12.917)">
        <path id="Path_6-2" data-name="Path 6" d="M361.161,376.082h0a10.55,10.55,0,1,1,14.92,0A10.562,10.562,0,0,1,361.161,376.082Z" transform="translate(-330.632 -289.325)" fill="#ff423d"/>
        <path id="Path_7-2" data-name="Path 7" d="M430.037,230.842a10.55,10.55,0,1,1,10.55-10.55A10.562,10.562,0,0,1,430.037,230.842Z" transform="translate(-378.037 -174.822)" fill="#ff423d"/>
        <path id="Path_8-2" data-name="Path 8" d="M361.161,79.458a10.55,10.55,0,1,1,14.92,0h0A10.562,10.562,0,0,1,361.161,79.458Z" transform="translate(-330.632 -60.354)" fill="#ff423d"/>
        <path id="Path_9-2" data-name="Path 9" d="M241.913,80.359a4.162,4.162,0,0,1-4.162-4.162V60.762c0-5.5,8.324-5.506,8.324,0V76.2A4.162,4.162,0,0,1,241.913,80.359Z" transform="translate(-237.751 -56.635)" fill="#ff423d"/>
      </g>
      <path id="Path_10-2" data-name="Path 10" d="M256,56.481V80.24a4.162,4.162,0,0,0,4.162-4.162V60.643A4.162,4.162,0,0,0,256,56.481Z" transform="translate(-197.612 -43.599)" fill="#fb3732"/>
      <path id="Path_11-2" data-name="Path 11" d="M237.751,371.061V355.626c0-5.5,8.324-5.506,8.324,0v15.435C246.075,376.561,237.751,376.567,237.751,371.061Z" transform="translate(-183.526 -271.33)" fill="#ff423d"/>
      <path id="Path_12-2" data-name="Path 12" d="M256,351.346v23.759a4.162,4.162,0,0,0,4.162-4.162V355.508A4.162,4.162,0,0,0,256,351.346Z" transform="translate(-197.612 -271.212)" fill="#fb3732"/>
      <g id="Group_5-2" data-name="Group 5" transform="translate(12.917 24.933)">
        <path id="Path_13-2" data-name="Path 13" d="M121.516,127.4,110.6,116.482c-3.888-3.888,1.992-9.78,5.886-5.886L127.4,121.51C131.29,125.4,125.409,131.29,121.516,127.4Z" transform="translate(-97.308 -109.318)" fill="#ff423d"/>
        <path id="Path_14-2" data-name="Path 14" d="M76.2,246.076H60.762c-5.5,0-5.506-8.324,0-8.324H76.2C81.7,237.752,81.7,246.076,76.2,246.076Z" transform="translate(-56.635 -208.459)" fill="#ff423d"/>
        <path id="Path_15-2" data-name="Path 15" d="M110.542,330.015,121.456,319.1c3.889-3.889,9.779,1.993,5.886,5.886L116.428,335.9C112.571,339.758,106.6,333.958,110.542,330.015Z" transform="translate(-97.248 -270.269)" fill="#ff423d"/>
      </g>
      <g id="Group_6-2" data-name="Group 6" transform="translate(47.837)">
        <path id="Path_16-2" data-name="Path 16" d="M220.293,21.1a10.55,10.55,0,1,1,10.55-10.55A10.562,10.562,0,0,1,220.293,21.1Z" transform="translate(-209.743)" fill="#ff5e5b"/>
        <path id="Path_17-2" data-name="Path 17" d="M220.293,440.586a10.55,10.55,0,1,1,10.55-10.55A10.562,10.562,0,0,1,220.293,440.586Z" transform="translate(-209.743 -323.811)" fill="#ff5e5b"/>
      </g>
      <path id="Path_18-2" data-name="Path 18" d="M256,419.486v21.1a10.55,10.55,0,1,0,0-21.1Z" transform="translate(-197.612 -323.811)" fill="#ff423d"/>
      <g id="Group_7-2" data-name="Group 7" transform="translate(0 14.016)">
        <path id="Path_19-2" data-name="Path 19" d="M64.513,79.459a10.55,10.55,0,0,1,14.92-14.92h0a10.55,10.55,0,1,1-14.92,14.92Z" transform="translate(-47.412 -61.454)" fill="#ff5e5b"/>
        <path id="Path_20-2" data-name="Path 20" d="M10.55,230.843a10.55,10.55,0,1,1,10.55-10.55A10.562,10.562,0,0,1,10.55,230.843Z" transform="translate(0 -175.922)" fill="#ff5e5b"/>
        <path id="Path_21-2" data-name="Path 21" d="M64.513,376.082a10.544,10.544,0,0,1,0-14.92h0a10.55,10.55,0,1,1,0,14.92Z" transform="translate(-47.412 -290.424)" fill="#ff5e5b"/>
        <path id="Path_22-2" data-name="Path 22" d="M154.227,184.3a30.07,30.07,0,1,1,30.07-30.07A30.1,30.1,0,0,1,154.227,184.3Z" transform="translate(-95.84 -109.856)" fill="#ff5e5b"/>
      </g>
      <g id="Group_8-2" data-name="Group 8" transform="translate(44.943)">
        <path id="Path_23-2" data-name="Path 23" d="M256,0V21.1A10.55,10.55,0,0,0,256,0Z" transform="translate(-242.556)" fill="#ff423d"/>
        <path id="Path_24-2" data-name="Path 24" d="M256,124.156V184.3a30.071,30.071,0,0,0,0-60.141Z" transform="translate(-242.556 -95.839)" fill="#ff423d"/>
        <path id="Path_25-2" data-name="Path 25" d="M210.5,223.942A13.444,13.444,0,1,1,223.942,210.5,13.46,13.46,0,0,1,210.5,223.942Z" transform="translate(-197.053 -152.11)" fill="#ff423d"/>
      </g>
      <path id="Path_26-2" data-name="Path 26" d="M256,197.053v26.889a13.444,13.444,0,1,0,0-26.889Z" transform="translate(-197.612 -152.11)" fill="#fb3732"/>
    </g>
    <g id="virus-svgrepo-com-3" data-name="virus-svgrepo-com" transform="translate(1284.786 146.695) rotate(21)" opacity="0.3">
      <g id="Group_3-3" data-name="Group 3" transform="translate(53.677 18.464)">
        <path id="Path_3-3" data-name="Path 3" d="M326.853,331.206l-8.082-8.082c-2.879-2.879,1.475-7.242,4.359-4.359l8.082,8.082C334.092,329.727,329.737,334.09,326.853,331.206Z" transform="translate(-317.826 -282.607)" fill="#fb3732"/>
        <path id="Path_4-3" data-name="Path 4" d="M365.985,243.916h-11.43c-4.073,0-4.077-6.164,0-6.164h11.43C370.058,237.752,370.062,243.916,365.985,243.916Z" transform="translate(-345.811 -216.062)" fill="#fb3732"/>
        <path id="Path_5-3" data-name="Path 5" d="M318.767,118.352l8.082-8.082c2.88-2.88,7.241,1.476,4.359,4.359l-8.082,8.082C320.245,125.59,315.884,121.234,318.767,118.352Z" transform="translate(-317.821 -109.325)" fill="#fb3732"/>
      </g>
      <g id="Group_4-3" data-name="Group 4" transform="translate(40.154 9.565)">
        <path id="Path_6-3" data-name="Path 6" d="M360.36,371.409h0a7.812,7.812,0,1,1,11.048,0A7.821,7.821,0,0,1,360.36,371.409Z" transform="translate(-337.754 -307.165)" fill="#ff423d"/>
        <path id="Path_7-3" data-name="Path 7" d="M427.3,225.367a7.812,7.812,0,1,1,7.812-7.812A7.821,7.821,0,0,1,427.3,225.367Z" transform="translate(-388.793 -183.884)" fill="#ff423d"/>
        <path id="Path_8-3" data-name="Path 8" d="M360.36,74.786a7.812,7.812,0,1,1,11.048,0h0A7.821,7.821,0,0,1,360.36,74.786Z" transform="translate(-337.754 -60.639)" fill="#ff423d"/>
        <path id="Path_9-3" data-name="Path 9" d="M240.833,74.2a3.082,3.082,0,0,1-3.082-3.082V59.691c0-4.073,6.164-4.077,6.164,0v11.43A3.082,3.082,0,0,1,240.833,74.2Z" transform="translate(-237.751 -56.635)" fill="#ff423d"/>
      </g>
      <path id="Path_10-3" data-name="Path 10" d="M256,56.481V74.075a3.082,3.082,0,0,0,3.082-3.082V59.563A3.082,3.082,0,0,0,256,56.481Z" transform="translate(-212.764 -46.942)" fill="#fb3732"/>
      <path id="Path_11-3" data-name="Path 11" d="M237.751,365.985v-11.43c0-4.073,6.164-4.077,6.164,0v11.43C243.915,370.058,237.751,370.062,237.751,365.985Z" transform="translate(-197.597 -292.134)" fill="#ff423d"/>
      <path id="Path_12-3" data-name="Path 12" d="M256,351.346V368.94a3.082,3.082,0,0,0,3.082-3.082v-11.43A3.082,3.082,0,0,0,256,351.346Z" transform="translate(-212.764 -292.007)" fill="#fb3732"/>
      <g id="Group_5-3" data-name="Group 5" transform="translate(9.565 18.463)">
        <path id="Path_13-3" data-name="Path 13" d="M118.352,122.7l-8.082-8.082c-2.879-2.879,1.475-7.242,4.359-4.359l8.082,8.082C125.591,121.226,121.236,125.588,118.352,122.7Z" transform="translate(-100.427 -109.318)" fill="#ff423d"/>
        <path id="Path_14-3" data-name="Path 14" d="M71.121,243.916H59.691c-4.073,0-4.077-6.164,0-6.164h11.43C75.194,237.752,75.2,243.916,71.121,243.916Z" transform="translate(-56.635 -216.061)" fill="#ff423d"/>
        <path id="Path_15-3" data-name="Path 15" d="M110.206,326.851l8.082-8.082c2.88-2.88,7.241,1.476,4.359,4.359l-8.082,8.082C111.709,334.066,107.287,329.771,110.206,326.851Z" transform="translate(-100.362 -282.609)" fill="#ff423d"/>
      </g>
      <g id="Group_6-3" data-name="Group 6" transform="translate(35.424)">
        <path id="Path_16-3" data-name="Path 16" d="M217.555,15.625a7.812,7.812,0,1,1,7.812-7.812A7.821,7.821,0,0,1,217.555,15.625Z" transform="translate(-209.743)" fill="#ff5e5b"/>
        <path id="Path_17-3" data-name="Path 17" d="M217.555,435.111a7.812,7.812,0,1,1,7.812-7.812A7.821,7.821,0,0,1,217.555,435.111Z" transform="translate(-209.743 -348.638)" fill="#ff5e5b"/>
      </g>
      <path id="Path_18-3" data-name="Path 18" d="M256,419.486v15.625a7.812,7.812,0,1,0,0-15.625Z" transform="translate(-212.764 -348.638)" fill="#ff423d"/>
      <g id="Group_7-3" data-name="Group 7" transform="translate(0 10.379)">
        <path id="Path_19-3" data-name="Path 19" d="M63.711,74.787A7.812,7.812,0,0,1,74.759,63.739h0A7.812,7.812,0,1,1,63.711,74.787Z" transform="translate(-51.047 -61.454)" fill="#ff5e5b"/>
        <path id="Path_20-3" data-name="Path 20" d="M7.812,225.368a7.812,7.812,0,1,1,7.812-7.812A7.821,7.821,0,0,1,7.812,225.368Z" transform="translate(0 -184.698)" fill="#ff5e5b"/>
        <path id="Path_21-3" data-name="Path 21" d="M63.71,371.409a7.808,7.808,0,0,1,0-11.048h0a7.812,7.812,0,1,1,0,11.048Z" transform="translate(-51.047 -307.979)" fill="#ff5e5b"/>
        <path id="Path_22-3" data-name="Path 22" d="M146.424,168.691a22.267,22.267,0,1,1,22.267-22.267A22.292,22.292,0,0,1,146.424,168.691Z" transform="translate(-103.188 -113.567)" fill="#ff5e5b"/>
      </g>
      <g id="Group_8-3" data-name="Group 8" transform="translate(33.281)">
        <path id="Path_23-3" data-name="Path 23" d="M256,0V15.625A7.812,7.812,0,0,0,256,0Z" transform="translate(-246.044)" fill="#ff423d"/>
        <path id="Path_24-3" data-name="Path 24" d="M256,124.156v44.535a22.267,22.267,0,0,0,0-44.535Z" transform="translate(-246.044 -103.187)" fill="#ff423d"/>
        <path id="Path_25-3" data-name="Path 25" d="M207.009,216.964a9.956,9.956,0,1,1,9.956-9.956A9.967,9.967,0,0,1,207.009,216.964Z" transform="translate(-197.053 -163.772)" fill="#ff423d"/>
      </g>
      <path id="Path_26-3" data-name="Path 26" d="M256,197.053v19.911a9.956,9.956,0,1,0,0-19.911Z" transform="translate(-212.764 -163.772)" fill="#fb3732"/>
    </g>
    <g id="virus-svgrepo-com-4" data-name="virus-svgrepo-com" transform="translate(1255.622 672.394) rotate(-107)" opacity="0.3">
      <g id="Group_3-4" data-name="Group 3" transform="translate(31.283 10.761)">
        <path id="Path_3-4" data-name="Path 3" d="M323.088,325.622l-4.71-4.71a1.8,1.8,0,0,1,2.54-2.54l4.71,4.71A1.8,1.8,0,0,1,323.088,325.622Z" transform="translate(-317.826 -297.298)" fill="#fb3732"/>
        <path id="Path_4-4" data-name="Path 4" d="M359.942,241.344H353.28a1.8,1.8,0,0,1,0-3.592h6.661A1.8,1.8,0,0,1,359.942,241.344Z" transform="translate(-348.184 -225.111)" fill="#fb3732"/>
        <path id="Path_5-4" data-name="Path 5" d="M318.372,114.586l4.71-4.71a1.8,1.8,0,0,1,2.54,2.54l-4.71,4.71A1.8,1.8,0,0,1,318.372,114.586Z" transform="translate(-317.821 -109.325)" fill="#fb3732"/>
      </g>
      <g id="Group_4-4" data-name="Group 4" transform="translate(23.402 5.575)">
        <path id="Path_6-4" data-name="Path 6" d="M359.407,365.847h0a4.553,4.553,0,1,1,6.439,0A4.558,4.558,0,0,1,359.407,365.847Z" transform="translate(-346.232 -328.405)" fill="#ff423d"/>
        <path id="Path_7-4" data-name="Path 7" d="M424.04,218.848a4.553,4.553,0,1,1,4.553-4.553A4.558,4.558,0,0,1,424.04,218.848Z" transform="translate(-401.599 -194.672)" fill="#ff423d"/>
        <path id="Path_8-4" data-name="Path 8" d="M359.407,69.223a4.553,4.553,0,1,1,6.439,0h0A4.558,4.558,0,0,1,359.407,69.223Z" transform="translate(-346.232 -60.979)" fill="#ff423d"/>
        <path id="Path_9-4" data-name="Path 9" d="M239.547,66.874a1.8,1.8,0,0,1-1.8-1.8V58.416a1.8,1.8,0,0,1,3.592,0v6.661A1.8,1.8,0,0,1,239.547,66.874Z" transform="translate(-237.751 -56.635)" fill="#ff423d"/>
      </g>
      <path id="Path_10-4" data-name="Path 10" d="M256,56.481V66.735a1.8,1.8,0,0,0,1.8-1.8V58.277A1.8,1.8,0,0,0,256,56.481Z" transform="translate(-230.802 -50.922)" fill="#fb3732"/>
      <path id="Path_11-4" data-name="Path 11" d="M237.751,359.942V353.28a1.8,1.8,0,0,1,3.592,0v6.661A1.8,1.8,0,0,1,237.751,359.942Z" transform="translate(-214.349 -316.901)" fill="#ff423d"/>
      <path id="Path_12-4" data-name="Path 12" d="M256,351.346V361.6a1.8,1.8,0,0,0,1.8-1.8v-6.661A1.8,1.8,0,0,0,256,351.346Z" transform="translate(-230.802 -316.763)" fill="#fb3732"/>
      <g id="Group_5-4" data-name="Group 5" transform="translate(5.575 10.76)">
        <path id="Path_13-4" data-name="Path 13" d="M114.587,117.12l-4.71-4.71a1.8,1.8,0,0,1,2.54-2.54l4.71,4.71A1.8,1.8,0,0,1,114.587,117.12Z" transform="translate(-104.139 -109.318)" fill="#ff423d"/>
        <path id="Path_14-4" data-name="Path 14" d="M65.078,241.344H58.416a1.8,1.8,0,0,1,0-3.592h6.661A1.8,1.8,0,0,1,65.078,241.344Z" transform="translate(-56.635 -225.11)" fill="#ff423d"/>
        <path id="Path_15-4" data-name="Path 15" d="M109.806,323.085l4.71-4.71a1.8,1.8,0,0,1,2.54,2.54l-4.71,4.71A1.8,1.8,0,0,1,109.806,323.085Z" transform="translate(-104.07 -297.301)" fill="#ff423d"/>
      </g>
      <g id="Group_6-4" data-name="Group 6" transform="translate(20.645)">
        <path id="Path_16-4" data-name="Path 16" d="M214.3,9.106a4.553,4.553,0,1,1,4.553-4.553A4.558,4.558,0,0,1,214.3,9.106Z" transform="translate(-209.743)" fill="#ff5e5b"/>
        <path id="Path_17-4" data-name="Path 17" d="M214.3,428.592a4.553,4.553,0,1,1,4.553-4.553A4.558,4.558,0,0,1,214.3,428.592Z" transform="translate(-209.743 -378.196)" fill="#ff5e5b"/>
      </g>
      <path id="Path_18-4" data-name="Path 18" d="M256,419.486v9.106a4.553,4.553,0,1,0,0-9.106Z" transform="translate(-230.802 -378.196)" fill="#ff423d"/>
      <g id="Group_7-4" data-name="Group 7" transform="translate(0 6.049)">
        <path id="Path_19-4" data-name="Path 19" d="M62.755,69.224a4.553,4.553,0,0,1,6.439-6.439h0a4.553,4.553,0,0,1-6.439,6.439Z" transform="translate(-55.375 -61.454)" fill="#ff5e5b"/>
        <path id="Path_20-4" data-name="Path 20" d="M4.553,218.849A4.553,4.553,0,1,1,9.106,214.3,4.558,4.558,0,0,1,4.553,218.849Z" transform="translate(0 -195.147)" fill="#ff5e5b"/>
        <path id="Path_21-4" data-name="Path 21" d="M62.755,365.847a4.55,4.55,0,0,1,0-6.439h0a4.553,4.553,0,1,1,0,6.439Z" transform="translate(-55.375 -328.88)" fill="#ff5e5b"/>
        <path id="Path_22-4" data-name="Path 22" d="M137.134,150.112a12.977,12.977,0,1,1,12.977-12.977A12.992,12.992,0,0,1,137.134,150.112Z" transform="translate(-111.936 -117.985)" fill="#ff5e5b"/>
      </g>
      <g id="Group_8-4" data-name="Group 8" transform="translate(19.396)">
        <path id="Path_23-4" data-name="Path 23" d="M256,0V9.106A4.553,4.553,0,0,0,256,0Z" transform="translate(-250.198)" fill="#ff423d"/>
        <path id="Path_24-4" data-name="Path 24" d="M256,124.156v25.955a12.977,12.977,0,0,0,0-25.955Z" transform="translate(-250.198 -111.935)" fill="#ff423d"/>
        <path id="Path_25-4" data-name="Path 25" d="M202.855,208.657a5.8,5.8,0,1,1,5.8-5.8A5.809,5.809,0,0,1,202.855,208.657Z" transform="translate(-197.053 -177.657)" fill="#ff423d"/>
      </g>
      <path id="Path_26-4" data-name="Path 26" d="M256,197.053v11.6a5.8,5.8,0,0,0,0-11.6Z" transform="translate(-230.802 -177.657)" fill="#fb3732"/>
    </g>
    <g id="virus-svgrepo-com-5" data-name="virus-svgrepo-com" transform="translate(523.287 81.155) rotate(-20)" opacity="0.3">
      <g id="Group_3-5" data-name="Group 3" transform="translate(41.037 14.116)">
        <path id="Path_3-5" data-name="Path 3" d="M324.728,328.054l-6.179-6.179a2.356,2.356,0,0,1,3.332-3.332l6.179,6.179A2.356,2.356,0,0,1,324.728,328.054Z" transform="translate(-317.826 -290.899)" fill="#fb3732"/>
        <path id="Path_4-5" data-name="Path 4" d="M362.574,242.465h-8.738a2.356,2.356,0,0,1,0-4.713h8.738A2.356,2.356,0,0,1,362.574,242.465Z" transform="translate(-347.151 -221.169)" fill="#fb3732"/>
        <path id="Path_5-5" data-name="Path 5" d="M318.544,116.226l6.179-6.179a2.356,2.356,0,0,1,3.332,3.332l-6.179,6.179A2.356,2.356,0,0,1,318.544,116.226Z" transform="translate(-317.821 -109.325)" fill="#fb3732"/>
      </g>
      <g id="Group_4-5" data-name="Group 4" transform="translate(30.699 7.313)">
        <path id="Path_6-5" data-name="Path 6" d="M359.822,368.27h0a5.973,5.973,0,1,1,8.447,0A5.98,5.98,0,0,1,359.822,368.27Z" transform="translate(-342.539 -319.154)" fill="#ff423d"/>
        <path id="Path_7-5" data-name="Path 7" d="M425.46,221.688a5.973,5.973,0,1,1,5.973-5.973A5.979,5.979,0,0,1,425.46,221.688Z" transform="translate(-396.021 -189.973)" fill="#ff423d"/>
        <path id="Path_8-5" data-name="Path 8" d="M359.822,71.646a5.973,5.973,0,1,1,8.447,0h0A5.979,5.979,0,0,1,359.822,71.646Z" transform="translate(-342.539 -60.831)" fill="#ff423d"/>
        <path id="Path_9-5" data-name="Path 9" d="M240.107,70.066a2.356,2.356,0,0,1-2.356-2.356V58.972a2.356,2.356,0,0,1,4.713,0V67.71A2.356,2.356,0,0,1,240.107,70.066Z" transform="translate(-237.751 -56.635)" fill="#ff423d"/>
      </g>
      <path id="Path_10-5" data-name="Path 10" d="M256,56.481V69.932a2.356,2.356,0,0,0,2.356-2.356V58.837A2.356,2.356,0,0,0,256,56.481Z" transform="translate(-222.945 -49.188)" fill="#fb3732"/>
      <path id="Path_11-5" data-name="Path 11" d="M237.751,362.574v-8.738a2.356,2.356,0,0,1,4.713,0v8.738A2.356,2.356,0,0,1,237.751,362.574Z" transform="translate(-207.052 -306.113)" fill="#ff423d"/>
      <path id="Path_12-5" data-name="Path 12" d="M256,351.346V364.8a2.356,2.356,0,0,0,2.356-2.356V353.7A2.356,2.356,0,0,0,256,351.346Z" transform="translate(-222.945 -305.98)" fill="#fb3732"/>
      <g id="Group_5-5" data-name="Group 5" transform="translate(7.313 14.115)">
        <path id="Path_13-5" data-name="Path 13" d="M116.227,119.553l-6.179-6.179a2.356,2.356,0,0,1,3.332-3.332l6.179,6.179A2.356,2.356,0,0,1,116.227,119.553Z" transform="translate(-102.522 -109.318)" fill="#ff423d"/>
        <path id="Path_14-5" data-name="Path 14" d="M67.71,242.465H58.972a2.356,2.356,0,0,1,0-4.713H67.71A2.356,2.356,0,0,1,67.71,242.465Z" transform="translate(-56.635 -221.168)" fill="#ff423d"/>
        <path id="Path_15-5" data-name="Path 15" d="M109.981,324.726l6.179-6.179a2.356,2.356,0,0,1,3.332,3.332l-6.179,6.179C111.129,330.242,107.749,326.958,109.981,324.726Z" transform="translate(-102.455 -290.902)" fill="#ff423d"/>
      </g>
      <g id="Group_6-5" data-name="Group 6" transform="translate(27.082)">
        <path id="Path_16-5" data-name="Path 16" d="M215.716,11.946a5.973,5.973,0,1,1,5.973-5.973A5.98,5.98,0,0,1,215.716,11.946Z" transform="translate(-209.743)" fill="#ff5e5b"/>
        <path id="Path_17-5" data-name="Path 17" d="M215.716,431.432a5.973,5.973,0,1,1,5.973-5.973A5.979,5.979,0,0,1,215.716,431.432Z" transform="translate(-209.743 -365.321)" fill="#ff5e5b"/>
      </g>
      <path id="Path_18-5" data-name="Path 18" d="M256,419.486v11.946a5.973,5.973,0,1,0,0-11.946Z" transform="translate(-222.945 -365.321)" fill="#ff423d"/>
      <g id="Group_7-5" data-name="Group 7" transform="translate(0 7.935)">
        <path id="Path_19-5" data-name="Path 19" d="M63.172,71.647A5.973,5.973,0,1,1,71.618,63.2h0a5.973,5.973,0,0,1-8.447,8.447Z" transform="translate(-53.49 -61.454)" fill="#ff5e5b"/>
        <path id="Path_20-5" data-name="Path 20" d="M5.973,221.688a5.973,5.973,0,1,1,5.973-5.973A5.979,5.979,0,0,1,5.973,221.688Z" transform="translate(0 -190.596)" fill="#ff5e5b"/>
        <path id="Path_21-5" data-name="Path 21" d="M63.171,368.27a5.969,5.969,0,0,1,0-8.447h0a5.973,5.973,0,1,1,0,8.447Z" transform="translate(-53.49 -319.776)" fill="#ff5e5b"/>
        <path id="Path_22-5" data-name="Path 22" d="M141.181,158.2A17.024,17.024,0,1,1,158.2,141.181,17.043,17.043,0,0,1,141.181,158.2Z" transform="translate(-108.126 -116.061)" fill="#ff5e5b"/>
      </g>
      <g id="Group_8-5" data-name="Group 8" transform="translate(25.444)">
        <path id="Path_23-5" data-name="Path 23" d="M256,0V11.946A5.973,5.973,0,1,0,256,0Z" transform="translate(-248.389)" fill="#ff423d"/>
        <path id="Path_24-5" data-name="Path 24" d="M256,124.156V158.2a17.024,17.024,0,0,0,0-34.048Z" transform="translate(-248.389 -108.125)" fill="#ff423d"/>
        <path id="Path_25-5" data-name="Path 25" d="M204.664,212.276a7.611,7.611,0,1,1,7.611-7.611A7.62,7.62,0,0,1,204.664,212.276Z" transform="translate(-197.053 -171.609)" fill="#ff423d"/>
      </g>
      <path id="Path_26-5" data-name="Path 26" d="M256,197.053v15.223a7.611,7.611,0,1,0,0-15.223Z" transform="translate(-222.945 -171.609)" fill="#fb3732"/>
    </g>
  </g>
</svg>
