<svg xmlns="http://www.w3.org/2000/svg" width="86.472" height="86.473" viewBox="0 0 86.472 86.473">
  <g id="virus-svgrepo-com" opacity="0.3">
    <g id="Group_3" data-name="Group 3" transform="translate(53.677 18.464)">
      <path id="Path_3" data-name="Path 3" d="M326.853,331.206l-8.082-8.082c-2.879-2.879,1.475-7.242,4.359-4.359l8.082,8.082C334.092,329.727,329.737,334.09,326.853,331.206Z" transform="translate(-317.826 -282.607)" fill="#fb3732"/>
      <path id="Path_4" data-name="Path 4" d="M365.985,243.916h-11.43c-4.073,0-4.077-6.164,0-6.164h11.43C370.058,237.752,370.062,243.916,365.985,243.916Z" transform="translate(-345.811 -216.062)" fill="#fb3732"/>
      <path id="Path_5" data-name="Path 5" d="M318.767,118.352l8.082-8.082c2.88-2.88,7.241,1.476,4.359,4.359l-8.082,8.082C320.245,125.59,315.884,121.234,318.767,118.352Z" transform="translate(-317.821 -109.325)" fill="#fb3732"/>
    </g>
    <g id="Group_4" data-name="Group 4" transform="translate(40.154 9.565)">
      <path id="Path_6" data-name="Path 6" d="M360.36,371.409h0a7.812,7.812,0,1,1,11.048,0A7.821,7.821,0,0,1,360.36,371.409Z" transform="translate(-337.754 -307.165)" fill="#ff423d"/>
      <path id="Path_7" data-name="Path 7" d="M427.3,225.367a7.812,7.812,0,1,1,7.812-7.812A7.821,7.821,0,0,1,427.3,225.367Z" transform="translate(-388.793 -183.884)" fill="#ff423d"/>
      <path id="Path_8" data-name="Path 8" d="M360.36,74.786a7.812,7.812,0,1,1,11.048,0h0A7.821,7.821,0,0,1,360.36,74.786Z" transform="translate(-337.754 -60.639)" fill="#ff423d"/>
      <path id="Path_9" data-name="Path 9" d="M240.833,74.2a3.082,3.082,0,0,1-3.082-3.082V59.691c0-4.073,6.164-4.077,6.164,0v11.43A3.082,3.082,0,0,1,240.833,74.2Z" transform="translate(-237.751 -56.635)" fill="#ff423d"/>
    </g>
    <path id="Path_10" data-name="Path 10" d="M256,56.481V74.075a3.082,3.082,0,0,0,3.082-3.082V59.563A3.082,3.082,0,0,0,256,56.481Z" transform="translate(-212.764 -46.942)" fill="#fb3732"/>
    <path id="Path_11" data-name="Path 11" d="M237.751,365.985v-11.43c0-4.073,6.164-4.077,6.164,0v11.43C243.915,370.058,237.751,370.062,237.751,365.985Z" transform="translate(-197.597 -292.134)" fill="#ff423d"/>
    <path id="Path_12" data-name="Path 12" d="M256,351.346V368.94a3.082,3.082,0,0,0,3.082-3.082v-11.43A3.082,3.082,0,0,0,256,351.346Z" transform="translate(-212.764 -292.007)" fill="#fb3732"/>
    <g id="Group_5" data-name="Group 5" transform="translate(9.565 18.463)">
      <path id="Path_13" data-name="Path 13" d="M118.352,122.7l-8.082-8.082c-2.879-2.879,1.475-7.242,4.359-4.359l8.082,8.082C125.591,121.226,121.236,125.588,118.352,122.7Z" transform="translate(-100.427 -109.318)" fill="#ff423d"/>
      <path id="Path_14" data-name="Path 14" d="M71.121,243.916H59.691c-4.073,0-4.077-6.164,0-6.164h11.43C75.194,237.752,75.2,243.916,71.121,243.916Z" transform="translate(-56.635 -216.061)" fill="#ff423d"/>
      <path id="Path_15" data-name="Path 15" d="M110.206,326.851l8.082-8.082c2.88-2.88,7.241,1.476,4.359,4.359l-8.082,8.082C111.709,334.066,107.287,329.771,110.206,326.851Z" transform="translate(-100.362 -282.609)" fill="#ff423d"/>
    </g>
    <g id="Group_6" data-name="Group 6" transform="translate(35.424)">
      <path id="Path_16" data-name="Path 16" d="M217.555,15.625a7.812,7.812,0,1,1,7.812-7.812A7.821,7.821,0,0,1,217.555,15.625Z" transform="translate(-209.743)" fill="#ff5e5b"/>
      <path id="Path_17" data-name="Path 17" d="M217.555,435.111a7.812,7.812,0,1,1,7.812-7.812A7.821,7.821,0,0,1,217.555,435.111Z" transform="translate(-209.743 -348.638)" fill="#ff5e5b"/>
    </g>
    <path id="Path_18" data-name="Path 18" d="M256,419.486v15.625a7.812,7.812,0,1,0,0-15.625Z" transform="translate(-212.764 -348.638)" fill="#ff423d"/>
    <g id="Group_7" data-name="Group 7" transform="translate(0 10.379)">
      <path id="Path_19" data-name="Path 19" d="M63.711,74.787A7.812,7.812,0,0,1,74.759,63.739h0A7.812,7.812,0,1,1,63.711,74.787Z" transform="translate(-51.047 -61.454)" fill="#ff5e5b"/>
      <path id="Path_20" data-name="Path 20" d="M7.812,225.368a7.812,7.812,0,1,1,7.812-7.812A7.821,7.821,0,0,1,7.812,225.368Z" transform="translate(0 -184.698)" fill="#ff5e5b"/>
      <path id="Path_21" data-name="Path 21" d="M63.71,371.409a7.808,7.808,0,0,1,0-11.048h0a7.812,7.812,0,1,1,0,11.048Z" transform="translate(-51.047 -307.979)" fill="#ff5e5b"/>
      <path id="Path_22" data-name="Path 22" d="M146.424,168.691a22.267,22.267,0,1,1,22.267-22.267A22.292,22.292,0,0,1,146.424,168.691Z" transform="translate(-103.188 -113.567)" fill="#ff5e5b"/>
    </g>
    <g id="Group_8" data-name="Group 8" transform="translate(33.281)">
      <path id="Path_23" data-name="Path 23" d="M256,0V15.625A7.812,7.812,0,0,0,256,0Z" transform="translate(-246.044)" fill="#ff423d"/>
      <path id="Path_24" data-name="Path 24" d="M256,124.156v44.535a22.267,22.267,0,0,0,0-44.535Z" transform="translate(-246.044 -103.187)" fill="#ff423d"/>
      <path id="Path_25" data-name="Path 25" d="M207.009,216.964a9.956,9.956,0,1,1,9.956-9.956A9.967,9.967,0,0,1,207.009,216.964Z" transform="translate(-197.053 -163.772)" fill="#ff423d"/>
    </g>
    <path id="Path_26" data-name="Path 26" d="M256,197.053v19.911a9.956,9.956,0,1,0,0-19.911Z" transform="translate(-212.764 -163.772)" fill="#fb3732"/>
  </g>
</svg>
