<svg xmlns="http://www.w3.org/2000/svg" width="91.584" height="117.613" viewBox="0 0 91.584 117.613">
  <g id="lotus-position" transform="translate(-54.885)">
    <path id="Path_167" data-name="Path 167" d="M233.509,6.542v5.02H220.424V6.542a6.542,6.542,0,0,1,13.085,0Z" transform="translate(-126.285 0)" fill="#6d6d6d"/>
    <path id="Path_168" data-name="Path 168" d="M146.469,389.822a11.893,11.893,0,0,1-11.894,11.894H66.786a11.9,11.9,0,0,1-4.833-22.764l22.373-6.542h32.709l22.373,6.542A11.9,11.9,0,0,1,146.469,389.822Z" transform="translate(0 -284.103)" fill="#5fc68f"/>
    <path id="Path_169" data-name="Path 169" d="M146.681,388.406a11.894,11.894,0,0,1-11.809,10.464,5.44,5.44,0,0,1-5.44-5.44v-4.956l3.794-1.9-23.474,3.353a9.971,9.971,0,0,1-5.87-.953,10,10,0,0,0-9.261-.171,9.971,9.971,0,0,1-6.549.831l-23.138-4.958,7.588,3.794v4.956a5.44,5.44,0,0,1-5.44,5.44,10.289,10.289,0,0,1-4.833-19.918l22.373-6.542h32.709l22.373,6.542a11.893,11.893,0,0,1,6.976,9.454Z" transform="translate(-0.296 -284.103)" fill="#7adbae"/>
    <g id="Group_45" data-name="Group 45" transform="translate(78.567 42.497)">
      <path id="Path_170" data-name="Path 170" d="M198.982,183.979c-3.476,18.6-5.76,12.013-5.76,41.051H160.514c0-29.17-2.245-22.241-5.76-41.051l9.1-4.133c3.537-.8,4.469-.6,20.684-.6a24.534,24.534,0,0,1,5.373.6c9.982,4.479,8.951,3.985,9.075,4.143Z" transform="translate(-154.754 -179.22)" fill="#b3cec9"/>
      <path id="Path_171" data-name="Path 171" d="M176.608,299.472l-.624-9.812C176.29,292.112,176.494,295.154,176.608,299.472Z" transform="translate(-170.95 -263.472)" fill="#b3cec9"/>
      <path id="Path_172" data-name="Path 172" d="M318.038,289.66l-.624,9.812C317.528,295.154,317.732,292.112,318.038,289.66Z" transform="translate(-278.843 -263.472)" fill="#b3cec9"/>
    </g>
    <path id="Path_173" data-name="Path 173" d="M205.954,183.315c-2.4,12.87-4.464,12.021-4.853,26.8a8.558,8.558,0,0,1-8.556,8.415H181.423a8.561,8.561,0,0,1-8.554-8.345c-.383-14.834-2.479-14.152-4.855-26.869l7.8-3.545c3.034-.687,3.832-.519,17.743-.519a21.046,21.046,0,0,1,4.609.511C206.733,183.6,205.848,183.18,205.954,183.315Z" transform="translate(-86.303 -136.733)" fill="#cae0dd"/>
    <path id="Path_174" data-name="Path 174" d="M186.761,282.388l-.535-8.417C186.488,276.074,186.663,278.684,186.761,282.388Z" transform="translate(-100.197 -209.006)" fill="#cae0dd"/>
    <path id="Path_175" data-name="Path 175" d="M308.082,273.97l-.535,8.417C307.644,278.683,307.819,276.073,308.082,273.97Z" transform="translate(-192.749 -209.005)" fill="#cae0dd"/>
    <path id="Path_176" data-name="Path 176" d="M280,217.2H251.284a3.271,3.271,0,0,1-3.27-3.272V194.307a5.433,5.433,0,0,1,1.9.183c5.691,1.648,5.691,12.9,5.691,12.9h16.713c-4.415-5.621-5.148-6.556-12.8-16.3a5.786,5.786,0,0,1,1.534-9.274,24.526,24.526,0,0,1,8.989,4.033c.133.17,15.368,19.22,15.629,19.546A7.276,7.276,0,0,1,280,217.2Z" transform="translate(-147.333 -138.706)" fill="#f9cfac"/>
    <path id="Path_177" data-name="Path 177" d="M121.728,194.337v19.624a3.271,3.271,0,0,1-3.27,3.272H89.745a7.276,7.276,0,0,1-5.674-11.8l15.543-19.437a24.636,24.636,0,0,1,9.1-4.133,5.786,5.786,0,0,1,1.513,9.264c-5.634,7.178-7.979,10.166-12.8,16.3H114.14s0-11.254,5.691-12.9A5.432,5.432,0,0,1,121.728,194.337Z" transform="translate(-21.047 -138.737)" fill="#f9cfac"/>
    <path id="Path_178" data-name="Path 178" d="M292.782,213.856A7.2,7.2,0,0,1,288,215.663H259.284a3.271,3.271,0,0,1-3.27-3.272V195.375c7.588-.55,7.588,13.084,7.588,13.084h16.712a7.544,7.544,0,0,0-1.611-4.66c-5.163-6.575-2.65-3.374-11.184-14.246a5.749,5.749,0,0,1-1.544-2.784,5.783,5.783,0,0,1,2.49-3.55,24.47,24.47,0,0,1,7.68,3.7c.133.17,15.368,19.22,15.629,19.546A7.266,7.266,0,0,1,292.782,213.856Z" transform="translate(-153.436 -139.774)" fill="#ffe4cc"/>
    <path id="Path_179" data-name="Path 179" d="M119.846,195.421v17.016a3.271,3.271,0,0,1-3.27,3.272H87.863a7.2,7.2,0,0,1-4.785-1.807,7.266,7.266,0,0,1,1.008-7.389c16.284-20.365,15.513-19.415,15.6-19.477a24.245,24.245,0,0,1,7.73-3.756,5.767,5.767,0,0,1,2.471,3.536,5.742,5.742,0,0,1-1.544,2.784L97.156,203.845a7.544,7.544,0,0,0-1.611,4.66h16.712S112.258,194.871,119.846,195.421Z" transform="translate(-21.062 -139.82)" fill="#ffe4cc"/>
    <path id="Path_180" data-name="Path 180" d="M218.991,53.274c0,6.771-2.2,10.947-4.112,15.29-3.235,7.347-14.709,7.347-17.941,0l-1.684-3.82c-2.224-5.067-2.726-10.466-2.291-13.205.915-5.681,6.289-10.158,12.945-10.158,7.18,0,13.082,5.278,13.082,11.894Z" transform="translate(-105.228 -31.568)" fill="#f9cfac"/>
    <path id="Path_181" data-name="Path 181" d="M219.313,51.5c-.5,5.149-2.126,8.326-3.974,12.523-3.235,7.347-14.706,7.346-17.941,0-1.926-4.373-3.462-7.334-3.974-12.52,1.53-9.5,14.5-13.669,22.2-6.675A11.5,11.5,0,0,1,219.313,51.5Z" transform="translate(-105.688 -31.535)" fill="#ffe4cc"/>
    <path id="Path_182" data-name="Path 182" d="M218.97,52.375C206,46.99,205.848,61.744,192.87,54.5c-.017-.405-.026-.813-.026-1.221,0-6.61,5.9-11.894,13.082-11.894C212.722,41.38,218.46,46.135,218.97,52.375Z" transform="translate(-105.245 -31.568)" fill="#6d6d6d"/>
    <path id="Path_183" data-name="Path 183" d="M154.018,448.368c-7.243,3.621-7.94,3.7-8.98,5.331a5.276,5.276,0,0,0-.832,2.846h-6.542V444.28Z" transform="translate(-63.15 -338.931)" fill="#f9cfac"/>
    <path id="Path_184" data-name="Path 184" d="M211.045,444.28v12.264H165.254a5.3,5.3,0,0,1,2.926-4.733c8.273-4.137,6.022-2.867,10.182-5.641a6.371,6.371,0,0,1,9.582,3.213l.2.619Z" transform="translate(-84.198 -338.931)" fill="#f9cfac"/>
    <path id="Path_185" data-name="Path 185" d="M150.224,447.419c-3.291,1.645-3.848,1.809-4.712,2.8a9.859,9.859,0,0,1-7.849,3.48V444.28Z" transform="translate(-63.149 -338.931)" fill="#ffe4cc"/>
    <path id="Path_186" data-name="Path 186" d="M218.662,444.28V453.7H176.241a1,1,0,0,1-.444-1.887c8.273-4.137,6.022-2.867,10.182-5.641a6.371,6.371,0,0,1,9.582,3.213l.2.619Z" transform="translate(-91.815 -338.931)" fill="#ffe4cc"/>
    <path id="Path_187" data-name="Path 187" d="M223.141,45.824c-3.9,3.285-15.616,3.767-21.2.82C206.856,39.9,217.581,39.38,223.141,45.824Z" transform="translate(-112.187 -31.488)" fill="#797a7a"/>
    <path id="Path_188" data-name="Path 188" d="M233.509,6.8a24.1,24.1,0,0,1-13.085-.147,6.545,6.545,0,1,1,13.085.147Z" transform="translate(-126.285 -0.002)" fill="#797a7a"/>
  </g>
</svg>
